<svg width="32" height="32" viewBox="0 0 32 32" fill="none" xmlns="http://www.w3.org/2000/svg">
<g clip-path="url(#clip0_300_181)">
<g filter="url(#filter0_dd_300_181)">
<path d="M1.40505 9.51885C2.43633 4.54686 5.60951 1.77764 10.5591 0.941076C14.218 0.322795 17.8782 0.314966 21.531 0.958438C26.6273 1.85614 29.691 4.78686 30.667 9.83401C31.421 13.7346 31.4329 17.6768 30.6552 21.5737C29.6118 26.5113 26.3568 29.5591 21.4255 30.3926C17.7666 31.0108 14.1063 31.0186 10.4536 30.3752C5.35725 29.4775 2.27994 26.4004 1.30401 21.3533C0.511498 17.427 0.587753 13.4599 1.40505 9.51878V9.51885Z" fill="black"/>
</g>
<path d="M1.40505 9.51885C2.43633 4.54686 5.60951 1.77764 10.5591 0.941076C14.218 0.322795 17.8782 0.314966 21.531 0.958438C26.6273 1.85614 29.691 4.78686 30.667 9.83401C31.421 13.7346 31.4329 17.6768 30.6552 21.5737C29.6118 26.5113 26.3568 29.5591 21.4255 30.3926C17.7666 31.0108 14.1063 31.0186 10.4536 30.3752C5.35725 29.4775 2.27994 26.4004 1.30401 21.3533C0.511498 17.427 0.587753 13.4599 1.40505 9.51878V9.51885Z" fill="#3FBDCF"/>
<path fill-rule="evenodd" clip-rule="evenodd" d="M11.5407 7.08084H12.6641V9.42978H7.21729V8.30637H11.5407V7.08084ZM21.8894 23.1996C22.8602 23.1996 23.6471 22.4126 23.6471 21.4418V11.4383H24.7705V21.6825C24.7705 23.1409 23.5883 24.3231 22.13 24.3231H9.95996C8.50164 24.3231 7.31941 23.1408 7.31941 21.6825V11.4383H8.44282V21.4418C8.44282 22.4126 9.22988 23.1996 10.2006 23.1996H21.8894ZM21.9804 9.42978V8.30637H24.7705V9.42978H21.9804ZM20.4585 9.42978H14.2301V8.30637H19.3351V7.08084H20.4585V9.42978Z" fill="white"/>
<path fill-rule="evenodd" clip-rule="evenodd" d="M13.1745 12.9974C12.9294 13.2732 12.6434 13.5183 12.2962 13.743C11.9489 13.9472 11.6017 14.0902 11.2749 14.1821V15.0196C11.9592 14.8153 12.5311 14.4885 12.9906 14.0187V20.2894H13.8281V12.9974H13.1745ZM18.0562 12.8545C17.3617 12.8545 16.8 13.0485 16.3711 13.4468C15.9217 13.8451 15.6562 14.3966 15.5949 15.1013H16.4221C16.4732 14.6111 16.6366 14.2332 16.9226 13.9677C17.1983 13.7021 17.5762 13.5796 18.0664 13.5796C18.5362 13.5796 18.9141 13.6919 19.1796 13.937C19.4247 14.1617 19.5575 14.4783 19.5575 14.8868C19.5575 15.2953 19.4247 15.6119 19.1694 15.8366C18.914 16.0511 18.5464 16.1634 18.0562 16.1634H17.4945V16.817H18.0868C18.5975 16.817 18.9855 16.9294 19.2715 17.1745C19.5575 17.4196 19.7004 17.7566 19.7004 18.1957C19.7004 18.6247 19.5472 18.9821 19.2613 19.2681C18.9447 19.5642 18.526 19.7174 18.0051 19.7174C17.5455 19.7174 17.1677 19.5847 16.8613 19.3396C16.5038 19.0434 16.3098 18.6042 16.2894 18.0323H15.4417C15.503 18.8494 15.7889 19.4723 16.3098 19.9013C16.7489 20.2485 17.3106 20.4323 18.0051 20.4323C18.7609 20.4323 19.3736 20.2179 19.8434 19.7889C20.303 19.3702 20.5379 18.8289 20.5379 18.1651C20.5379 17.7362 20.4153 17.3787 20.1702 17.0928C19.9455 16.8068 19.6187 16.6025 19.1898 16.4698C19.9864 16.2042 20.3847 15.6528 20.3847 14.8357C20.3847 14.223 20.1702 13.743 19.7515 13.3855C19.3226 13.0281 18.7506 12.8545 18.0562 12.8545Z" fill="white"/>
</g>
<defs>
<filter id="filter0_dd_300_181" x="-10.251" y="-6.52341" width="52.4863" height="52.3804" filterUnits="userSpaceOnUse" color-interpolation-filters="sRGB">
<feFlood flood-opacity="0" result="BackgroundImageFix"/>
<feColorMatrix in="SourceAlpha" type="matrix" values="0 0 0 0 0 0 0 0 0 0 0 0 0 0 0 0 0 0 127 0" result="hardAlpha"/>
<feOffset dy="5"/>
<feGaussianBlur stdDeviation="4"/>
<feColorMatrix type="matrix" values="0 0 0 0 0 0 0 0 0 0 0 0 0 0 0 0 0 0 0.078125 0"/>
<feBlend mode="normal" in2="BackgroundImageFix" result="effect1_dropShadow_300_181"/>
<feColorMatrix in="SourceAlpha" type="matrix" values="0 0 0 0 0 0 0 0 0 0 0 0 0 0 0 0 0 0 127 0" result="hardAlpha"/>
<feOffset dy="4"/>
<feGaussianBlur stdDeviation="5.5"/>
<feColorMatrix type="matrix" values="0 0 0 0 0 0 0 0 0 0 0 0 0 0 0 0 0 0 0.210824 0"/>
<feBlend mode="normal" in2="effect1_dropShadow_300_181" result="effect2_dropShadow_300_181"/>
<feBlend mode="normal" in="SourceGraphic" in2="effect2_dropShadow_300_181" result="shape"/>
</filter>
<clipPath id="clip0_300_181">
<rect width="32" height="31.8638" fill="white"/>
</clipPath>
</defs>
</svg>
