<svg xmlns="http://www.w3.org/2000/svg" data-name="Layer 1" viewBox="0 0 32 32">
    <path fill="#ed456a"
        d="M17.875,7.5h0A2.625,2.625,0,0,1,20.5,10.125V11.5a1,1,0,0,1-1,1h-7a1,1,0,0,1-1-1V10.125A2.625,2.625,0,0,1,14.125,7.5h3.75Z" />
    <path fill="#fcc37a" d="M17.5,6.5V7A1.5,1.5,0,0,1,16,8.5h0A1.5,1.5,0,0,1,14.5,7V6.5Z" />
    <path fill="#ffd9aa" d="M19,4.5a3,3,0,0,1-6,0c0-.11.01-.22.02-.33a3,3,0,0,1,5.96-.01C18.99,4.27,19,4.39,19,4.5Z" />
    <path fill="#57565d"
        d="M18.98,4.16l-.41-.14-2.45-.69a1.629,1.629,0,0,0-1.11.06l-1.58.63-.41.15a3,3,0,0,1,5.96-.01Z" />
    <path fill="#82c8ec"
        d="M23.875,16.5h0A2.625,2.625,0,0,1,26.5,19.125V20.5a1,1,0,0,1-1,1h-7a1,1,0,0,1-1-1V19.125A2.625,2.625,0,0,1,20.125,16.5h3.75Z" />
    <path fill="#fcc37a" d="M23.5,15.5V16A1.5,1.5,0,0,1,22,17.5h0A1.5,1.5,0,0,1,20.5,16v-.5Z" />
    <path fill="#ffd9aa"
        d="M25,13.5a3,3,0,0,1-6,0c0-.11.01-.22.02-.33a3,3,0,0,1,5.96-.01C24.99,13.27,25,13.39,25,13.5Z" />
    <path fill="#57565d"
        d="M24.98,13.16l-.41-.14-2.45-.69a1.629,1.629,0,0,0-1.11.06l-1.58.63-.41.15a3,3,0,0,1,5.96-.01Z" />
    <path fill="#55bb8c"
        d="M11.875,16.5h0A2.625,2.625,0,0,1,14.5,19.125V20.5a1,1,0,0,1-1,1h-7a1,1,0,0,1-1-1V19.125A2.625,2.625,0,0,1,8.125,16.5h3.75Z" />
    <path fill="#fcc37a" d="M11.5,15.5V16A1.5,1.5,0,0,1,10,17.5h0A1.5,1.5,0,0,1,8.5,16v-.5Z" />
    <path fill="#ffd9aa"
        d="M13,13.5a3,3,0,0,1-6,0c0-.11.01-.22.02-.33a3,3,0,0,1,5.96-.01C12.99,13.27,13,13.39,13,13.5Z" />
    <path fill="#57565d"
        d="M12.98,13.16l-.41-.14-2.45-.69a1.629,1.629,0,0,0-1.11.06l-1.58.63-.41.15a3,3,0,0,1,5.96-.01Z" />
    <path fill="#fbde53"
        d="M6.875,26.5h0A2.625,2.625,0,0,1,9.5,29.125V30.5a1,1,0,0,1-1,1h-7a1,1,0,0,1-1-1V29.125A2.625,2.625,0,0,1,3.125,26.5h3.75Z" />
    <path fill="#fcc37a" d="M6.5,25.5V26A1.5,1.5,0,0,1,5,27.5H5A1.5,1.5,0,0,1,3.5,26v-.5Z" />
    <path fill="#ffd9aa" d="M8,23.5a3,3,0,0,1-6,0c0-.11.01-.22.02-.33a3,3,0,0,1,5.96-.01C7.99,23.27,8,23.39,8,23.5Z" />
    <path fill="#57565d"
        d="M7.98,23.16l-.41-.14-2.45-.69a1.629,1.629,0,0,0-1.11.06l-1.58.63-.41.15a3,3,0,0,1,5.96-.01Z" />
    <path fill="#416fb3"
        d="M17.875,26.5h0A2.625,2.625,0,0,1,20.5,29.125V30.5a1,1,0,0,1-1,1h-7a1,1,0,0,1-1-1V29.125A2.625,2.625,0,0,1,14.125,26.5h3.75Z" />
    <path fill="#fcc37a" d="M17.5,25.5V26A1.5,1.5,0,0,1,16,27.5h0A1.5,1.5,0,0,1,14.5,26v-.5Z" />
    <path fill="#ffd9aa"
        d="M19,23.5a3,3,0,0,1-6,0c0-.11.01-.22.02-.33a3,3,0,0,1,5.96-.01C18.99,23.27,19,23.39,19,23.5Z" />
    <path fill="#57565d"
        d="M18.98,23.16l-.41-.14-2.45-.69a1.629,1.629,0,0,0-1.11.06l-1.58.63-.41.15a3,3,0,0,1,5.96-.01Z" />
    <path fill="#f59831"
        d="M28.875,26.5h0A2.625,2.625,0,0,1,31.5,29.125V30.5a1,1,0,0,1-1,1h-7a1,1,0,0,1-1-1V29.125A2.625,2.625,0,0,1,25.125,26.5h3.75Z" />
    <path fill="#fcc37a" d="M28.5,25.5V26A1.5,1.5,0,0,1,27,27.5h0A1.5,1.5,0,0,1,25.5,26v-.5Z" />
    <path fill="#ffd9aa"
        d="M30,23.5a3,3,0,0,1-6,0c0-.11.01-.22.02-.33a3,3,0,0,1,5.96-.01C29.99,23.27,30,23.39,30,23.5Z" />
    <path fill="#57565d"
        d="M29.98,23.16l-.41-.14-2.45-.69a1.629,1.629,0,0,0-1.11.06l-1.58.63-.41.15a3,3,0,0,1,5.96-.01Z" />
</svg>