<svg width="80" height="80" viewBox="0 0 80 80" fill="none" xmlns="http://www.w3.org/2000/svg">
<g clip-path="url(#clip0_271_174)">
<path d="M40 80C62.0914 80 80 62.0914 80 40C80 17.9086 62.0914 0 40 0C17.9086 0 0 17.9086 0 40C0 62.0914 17.9086 80 40 80Z" fill="#239FDB"/>
<path d="M41.5983 16.6667C40.22 16.6667 39.0983 17.7884 39.0983 19.1667V20C39.0983 20.09 39.1123 20.1787 39.1406 20.2637L39.6094 21.6667H37.5C37.185 21.6667 36.8962 21.844 36.7546 22.1257L35.3158 25H34.1667H33.265V24.1667C33.265 23.7067 32.8916 23.3334 32.4316 23.3334H20.8333C20.3733 23.3334 20 23.7067 20 24.1667C20 24.6267 20.3717 25 20.8333 25H24.9316V38.3334H20.8333C20.3733 38.3334 20 38.7067 20 39.1667C20 39.6267 20.3717 40 20.8333 40H32.4316C32.8916 40 33.265 39.6267 33.265 39.1667V38.3334H35.485L36.9076 39.7559C37.0492 39.8975 37.2398 39.9753 37.4382 39.9903L28.9323 51.3347C27.2173 53.623 26.9443 56.6328 28.2227 59.1895C29.501 61.7461 32.0733 63.3334 34.9316 63.3334H53.265C56.1233 63.3334 58.694 61.7461 59.974 59.1895C61.2523 56.6328 60.9793 53.6213 59.2643 51.3347L50.4362 39.5638C51.0945 39.1138 51.5299 38.3567 51.5299 37.5C51.5299 36.8567 51.2822 36.2767 50.8822 35.8334C51.2822 35.39 51.5299 34.81 51.5299 34.1667C51.5299 33.5234 51.2822 32.9434 50.8822 32.5C51.2822 32.0567 51.5299 31.4767 51.5299 30.8334C51.5299 30.19 51.2822 29.61 50.8822 29.1667C51.2822 28.7234 51.5299 28.1434 51.5299 27.5C51.5299 26.2217 50.5645 25.1777 49.3262 25.0293L49.8991 22.7344L50.7194 20.2637C50.7477 20.1787 50.765 20.09 50.765 20V19.1667C50.765 17.7884 49.6433 16.6667 48.265 16.6667C47.6216 16.6667 47.0416 16.9177 46.5983 17.3177C46.155 16.9177 45.575 16.6667 44.9316 16.6667C44.2883 16.6667 43.7083 16.9177 43.265 17.3177C42.8216 16.9177 42.2416 16.6667 41.5983 16.6667ZM41.5983 18.3334C42.0583 18.3334 42.4316 18.7084 42.4316 19.1667V20C42.4316 20.46 42.805 20.8334 43.265 20.8334C43.725 20.8334 44.0983 20.46 44.0983 20V19.1667C44.0983 18.7084 44.4716 18.3334 44.9316 18.3334C45.3916 18.3334 45.765 18.7084 45.765 19.1667V20C45.765 20.46 46.1383 20.8334 46.5983 20.8334C47.0583 20.8334 47.4316 20.46 47.4316 20V19.1667C47.4316 18.7084 47.805 18.3334 48.265 18.3334C48.725 18.3334 49.0983 18.7084 49.0983 19.1667V19.8666L48.3073 22.2363C48.304 22.2463 48.3074 22.2572 48.304 22.2689C48.3006 22.2789 48.2926 22.2898 48.291 22.3014L47.6139 25H42.2461L41.5723 22.2982C41.5689 22.2865 41.5593 22.2773 41.5559 22.2656C41.5526 22.2556 41.556 22.2447 41.5526 22.2363L40.7616 19.8666V19.1667H40.7649C40.7649 18.7084 41.1383 18.3334 41.5983 18.3334ZM38.0143 23.3334H40.1139L40.791 26.0352C40.7977 26.0585 40.812 26.0786 40.8203 26.1003C40.8336 26.1403 40.8491 26.1775 40.8691 26.2142C40.8975 26.2675 40.9317 26.314 40.9701 26.3607C40.9951 26.3907 41.0199 26.4203 41.0482 26.4453C41.0632 26.4587 41.0722 26.4776 41.0872 26.4909C41.0889 26.4926 41.0921 26.4925 41.0937 26.4942C41.1287 26.5209 41.1693 26.5361 41.2077 26.5561C41.2377 26.5727 41.2655 26.5932 41.2988 26.6049C41.3922 26.6449 41.4901 26.6668 41.5951 26.6668H48.2617H49.0267C49.4867 26.6668 49.86 27.0418 49.86 27.5001C49.86 27.9584 49.4899 28.3334 49.0299 28.3334H45.1172C44.6572 28.3334 44.2839 28.7068 44.2839 29.1668C44.2839 29.6268 44.6572 30.0001 45.1172 30.0001H49.0299C49.4899 30.0001 49.8633 30.3751 49.8633 30.8334C49.8633 31.2918 49.4899 31.6668 49.0299 31.6668H45.1172C44.6572 31.6668 44.2839 32.0401 44.2839 32.5001C44.2839 32.9601 44.6572 33.3334 45.1172 33.3334H49.0299C49.4899 33.3334 49.8633 33.7084 49.8633 34.1668C49.8633 34.6251 49.4899 35.0001 49.0299 35.0001H45.1172C44.6572 35.0001 44.2839 35.3734 44.2839 35.8334C44.2839 36.2934 44.6572 36.6668 45.1172 36.6668H49.0299C49.4899 36.6668 49.8633 37.0418 49.8633 37.5001C49.8633 37.9584 49.4899 38.3334 49.0299 38.3334H47.5H46.2012H45.1204H41.9954H39.0983H37.8451L36.4225 36.9109C36.3459 36.8342 36.2508 36.772 36.1491 36.7286C36.0458 36.6869 35.9417 36.6667 35.8333 36.6667H33.265V26.6667H34.1667H35.8333C35.9783 26.6667 36.1089 26.621 36.2272 26.556C36.2589 26.5393 36.2835 26.5174 36.3118 26.4974C36.4052 26.4291 36.4814 26.3468 36.5397 26.2468C36.5497 26.2301 36.5704 26.226 36.5788 26.2077L38.0143 23.3334ZM26.5983 25H31.5983V25.8334V37.5V38.3334H26.5983V25ZM29.0983 35C28.8773 35 28.6653 35.0878 28.5091 35.2441C28.3528 35.4004 28.265 35.6123 28.265 35.8334C28.265 36.0544 28.3528 36.2663 28.5091 36.4226C28.6653 36.5789 28.8773 36.6667 29.0983 36.6667C29.3193 36.6667 29.5313 36.5789 29.6876 36.4226C29.8438 36.2663 29.9316 36.0544 29.9316 35.8334C29.9316 35.6123 29.8438 35.4004 29.6876 35.2441C29.5313 35.0878 29.3193 35 29.0983 35ZM39.515 40H40.8561L40.1465 42.2494C40.0082 42.6894 40.2518 43.156 40.6901 43.2943C40.7734 43.321 40.8591 43.3334 40.9408 43.3334C41.2941 43.3334 41.6234 43.1057 41.735 42.7507L42.6042 40H43.265V42.5C43.265 42.96 43.6383 43.3334 44.0983 43.3334C44.5583 43.3334 44.9316 42.96 44.9316 42.5V40H45.1204H45.5924L46.4616 42.7507C46.5999 43.189 47.0698 43.4326 47.5065 43.2943C47.9448 43.156 48.1885 42.6894 48.0501 42.2494L47.3372 40H47.4967H48.6784L57.9297 52.3308C59.2847 54.1374 59.4898 56.4224 58.4798 58.4408C57.4698 60.4591 55.5233 61.6667 53.265 61.6667H34.9316C32.675 61.6667 30.7219 60.4608 29.7135 58.4408C28.7035 56.4224 28.9103 54.1374 30.2637 52.3308L39.515 40ZM40.765 46.6211C40.305 46.6211 39.9316 46.9944 39.9316 47.4544C39.9316 47.9144 40.305 48.2878 40.765 48.2878H42.4316C43.5266 48.2878 44.4468 48.9988 44.7852 49.9805H40.765C40.305 49.9805 39.9316 50.3538 39.9316 50.8138C39.9316 51.2738 40.305 51.6472 40.765 51.6472H44.7689C44.4172 52.6022 43.5066 53.2878 42.4316 53.2878H40.765C40.305 53.2878 39.9316 53.6611 39.9316 54.1211C39.9316 54.1261 39.9332 54.1291 39.935 54.1341C39.9316 54.3525 40.0092 54.5713 40.1759 54.7363L45.1759 59.7363C45.3392 59.8997 45.5517 59.9805 45.765 59.9805C45.9784 59.9805 46.1909 59.898 46.3542 59.7363C46.6792 59.4113 46.6792 58.8829 46.3542 58.5579L42.7214 54.9251C44.5914 54.7935 46.1306 53.4405 46.5072 51.6471H47.4317C47.8917 51.6471 48.265 51.2738 48.265 50.8138C48.265 50.3538 47.8917 49.9805 47.4317 49.9805H46.517C46.392 49.3505 46.1189 48.7811 45.7455 48.2878H47.4317C47.8917 48.2878 48.265 47.9144 48.265 47.4544C48.265 46.9944 47.8917 46.6211 47.4317 46.6211H42.4317L40.765 46.6211Z" fill="white"/>
</g>
<defs>
<clipPath id="clip0_271_174">
<rect width="80" height="80" fill="white"/>
</clipPath>
</defs>
</svg>
