<svg width="80" height="80" viewBox="0 0 80 80" fill="none" xmlns="http://www.w3.org/2000/svg">
<g clip-path="url(#clip0_271_211)">
<path d="M40.0126 80C39.8064 80 39.5986 80 39.3876 80H39.2095C38.8987 79.9967 38.6019 79.87 38.3845 79.6479C38.1671 79.4258 38.0468 79.1264 38.0501 78.8156C38.0534 78.5048 38.1801 78.2081 38.4022 77.9907C38.6243 77.7732 38.9237 77.6529 39.2345 77.6563H39.2626H39.4283C40.1189 77.6688 40.8079 77.6563 41.4892 77.6281C41.8 77.614 42.1037 77.724 42.3334 77.9338C42.5631 78.1436 42.7001 78.4361 42.7142 78.7469C42.7283 79.0577 42.6183 79.3613 42.4085 79.5911C42.1987 79.8208 41.9062 79.9578 41.5954 79.9719C41.0736 79.9875 40.5407 80 40.0126 80ZM33.1376 79.2984C33.0574 79.2982 32.9773 79.2904 32.8986 79.275C32.1173 79.1188 31.3361 78.9234 30.5798 78.7094C30.2934 78.6155 30.0542 78.4149 29.9119 78.1493C29.7696 77.8837 29.735 77.5734 29.8155 77.283C29.8959 76.9925 30.0852 76.7443 30.3439 76.5897C30.6026 76.4352 30.911 76.3863 31.2048 76.4531C31.9158 76.6531 32.6439 76.8297 33.3689 76.9797C33.6523 77.0392 33.9036 77.2015 34.0744 77.4353C34.2452 77.6691 34.3234 77.9579 34.2939 78.246C34.2644 78.534 34.1293 78.801 33.9146 78.9953C33.7 79.1897 33.4209 79.2976 33.1314 79.2984H33.1376ZM47.6345 79.1313C47.3464 79.1317 47.0682 79.0261 46.853 78.8344C46.6379 78.6427 46.5009 78.3785 46.4682 78.0922C46.4355 77.806 46.5095 77.5177 46.6759 77.2825C46.8424 77.0473 47.0896 76.8816 47.3704 76.8172C48.0908 76.6516 48.8142 76.4563 49.5204 76.2406C49.6685 76.192 49.8249 76.1734 49.9803 76.1859C50.1356 76.1984 50.287 76.2418 50.4254 76.3136C50.5638 76.3853 50.6865 76.4839 50.7863 76.6037C50.8861 76.7234 50.961 76.8619 51.0066 77.011C51.0523 77.16 51.0677 77.3167 51.052 77.4718C51.0364 77.6269 50.9899 77.7773 50.9154 77.9142C50.8409 78.0511 50.7398 78.1718 50.618 78.2692C50.4963 78.3666 50.3563 78.4387 50.2064 78.4813C49.4486 78.7141 48.6736 78.9219 47.9001 79.1063C47.8123 79.1246 47.7227 79.133 47.6329 79.1313H47.6345ZM25.1564 76.5625C24.9776 76.5623 24.8012 76.5212 24.6408 76.4422C23.9298 76.0922 23.2204 75.7125 22.5329 75.3141C22.2636 75.1578 22.0673 74.901 21.9873 74.6001C21.9073 74.2991 21.9501 73.9787 22.1064 73.7094C22.2626 73.44 22.5194 73.2438 22.8204 73.1638C23.1213 73.0838 23.4417 73.1266 23.7111 73.2828C24.3501 73.6547 25.0126 74.0094 25.6751 74.3359C25.9145 74.4519 26.1073 74.6457 26.2219 74.8857C26.3365 75.1257 26.366 75.3976 26.3057 75.6566C26.2453 75.9156 26.0987 76.1464 25.8898 76.311C25.681 76.4756 25.4223 76.5643 25.1564 76.5625ZM55.5533 76.2063C55.2889 76.2102 55.031 76.1247 54.8214 75.9635C54.6118 75.8023 54.4629 75.575 54.3988 75.3185C54.3347 75.062 54.3592 74.7914 54.4684 74.5506C54.5776 74.3098 54.765 74.113 55.0001 73.9922C55.6548 73.6516 56.3064 73.2828 56.9361 72.8984C57.2011 72.736 57.5198 72.6855 57.822 72.758C58.1243 72.8305 58.3853 73.0202 58.5478 73.2852C58.7102 73.5502 58.7607 73.8689 58.6882 74.1711C58.6157 74.4734 58.4261 74.7344 58.1611 74.8969C57.4845 75.3109 56.7861 75.7063 56.0845 76.0719C55.9189 76.1579 55.7351 76.2029 55.5486 76.2031L55.5533 76.2063ZM8.4845 58.2078C8.24685 58.2073 8.01498 58.1346 7.81964 57.9992C7.6243 57.8639 7.47472 57.6723 7.39075 57.45C7.11106 56.7094 6.85325 55.9484 6.62513 55.1875C6.58091 55.0401 6.56616 54.8854 6.58173 54.7323C6.59729 54.5791 6.64287 54.4306 6.71585 54.295C6.86324 54.0214 7.11332 53.8174 7.41106 53.7281C7.70881 53.6388 8.02984 53.6715 8.30352 53.8189C8.57721 53.9662 8.78114 54.2163 8.87044 54.5141C9.08294 55.2219 9.32356 55.9313 9.58294 56.6219C9.6376 56.7659 9.6633 56.9193 9.65855 57.0733C9.6538 57.2272 9.61869 57.3788 9.55526 57.5191C9.49182 57.6595 9.40129 57.786 9.28887 57.8913C9.17645 57.9966 9.04434 58.0787 8.90013 58.1328C8.76735 58.1831 8.62647 58.2085 8.4845 58.2078ZM71.7845 57.4703C71.5969 57.4705 71.412 57.4257 71.2453 57.3396C71.0786 57.2535 70.9351 57.1287 70.8267 56.9756C70.7183 56.8225 70.6482 56.6456 70.6224 56.4598C70.5966 56.274 70.6157 56.0847 70.6783 55.9078C70.922 55.2109 71.147 54.5016 71.3423 53.7828C71.4252 53.4832 71.6237 53.2288 71.8942 53.0755C72.1646 52.9223 72.4849 52.8828 72.7845 52.9656C73.0841 53.0485 73.3385 53.247 73.4918 53.5175C73.645 53.7879 73.6846 54.1082 73.6017 54.4078C73.3923 55.1734 73.1517 55.9406 72.8908 56.6875C72.8102 56.9165 72.6604 57.1148 72.4623 57.255C72.2641 57.3953 72.0273 57.4705 71.7845 57.4703ZM6.52356 50C6.23477 49.9997 5.95629 49.8926 5.74169 49.6993C5.52709 49.5061 5.39152 49.2403 5.36106 48.9531C5.27513 48.1719 5.21575 47.3656 5.1845 46.5734C5.17228 46.2626 5.28402 45.9597 5.49514 45.7313C5.70627 45.5029 5.99948 45.3677 6.31028 45.3555C6.62108 45.3433 6.92401 45.455 7.15242 45.6661C7.38084 45.8772 7.51603 46.1705 7.52825 46.4813C7.55794 47.2203 7.61263 47.9672 7.6845 48.7016C7.70076 48.8646 7.68295 49.0291 7.6322 49.1849C7.58144 49.3406 7.49885 49.4841 7.38968 49.6062C7.28051 49.7283 7.14713 49.8264 6.99803 49.8942C6.84892 49.962 6.68735 49.998 6.52356 50ZM73.5548 49.2188H73.4548C73.1452 49.1921 72.8588 49.0437 72.6584 48.8062C72.458 48.5686 72.3601 48.2613 72.3861 47.9516C72.4486 47.2172 72.4861 46.4672 72.5001 45.7266V45.6594C72.5041 45.3486 72.6313 45.0521 72.8539 44.8351C73.0764 44.6181 73.376 44.4984 73.6868 44.5024C73.9976 44.5063 74.2942 44.6335 74.5111 44.8561C74.7281 45.0786 74.8478 45.3783 74.8439 45.6891V45.7609C74.8298 46.5609 74.7876 47.3625 74.722 48.15C74.6962 48.4426 74.5614 48.7148 74.3443 48.9128C74.1273 49.1107 73.8439 49.2199 73.5501 49.2188H73.5548ZM6.66419 41.5625C6.60876 41.5622 6.55342 41.558 6.49856 41.55C6.19088 41.5063 5.91317 41.3421 5.72651 41.0936C5.53986 40.8451 5.45955 40.5327 5.50325 40.225C5.61419 39.4438 5.75481 38.6484 5.91888 37.8813C5.9488 37.7287 6.00877 37.5836 6.09531 37.4545C6.18184 37.3253 6.29321 37.2147 6.42292 37.129C6.55264 37.0433 6.6981 36.9843 6.85085 36.9554C7.00359 36.9265 7.16056 36.9282 7.31262 36.9606C7.46468 36.9929 7.60878 37.0552 7.73654 37.1438C7.86429 37.2323 7.97315 37.3454 8.05677 37.4765C8.14038 37.6076 8.19709 37.7539 8.22358 37.9071C8.25007 38.0603 8.24581 38.2172 8.21106 38.3688C8.05481 39.0906 7.92825 39.8281 7.82356 40.5563C7.7834 40.8353 7.64414 41.0905 7.43125 41.2753C7.21837 41.46 6.94608 41.562 6.66419 41.5625ZM73.2048 40.7141C72.928 40.7138 72.6602 40.6153 72.4491 40.4362C72.238 40.2572 72.0972 40.009 72.0517 39.7359C71.9283 39.0078 71.7798 38.2734 71.6079 37.5484C71.5664 37.3969 71.5557 37.2386 71.5765 37.0828C71.5974 36.9271 71.6493 36.7771 71.7293 36.6418C71.8093 36.5066 71.9156 36.3888 72.0421 36.2955C72.1685 36.2021 72.3124 36.1352 72.4652 36.0986C72.618 36.062 72.7767 36.0566 72.9316 36.0825C73.0866 36.1085 73.2348 36.1654 73.3673 36.2497C73.4999 36.3341 73.6141 36.4443 73.7032 36.5737C73.7924 36.7032 73.8545 36.8492 73.8861 37.0031C74.072 37.7734 74.2314 38.5656 74.3626 39.3469C74.3911 39.515 74.3825 39.6874 74.3373 39.8519C74.2922 40.0163 74.2117 40.1689 74.1014 40.299C73.9911 40.4291 73.8537 40.5335 73.6988 40.6049C73.544 40.6764 73.3754 40.7131 73.2048 40.7125V40.7141ZM8.88919 33.4234C8.69693 33.4222 8.50794 33.3737 8.33882 33.2822C8.1697 33.1908 8.02565 33.0592 7.91932 32.899C7.813 32.7388 7.74766 32.5549 7.72906 32.3636C7.71045 32.1722 7.73915 31.9792 7.81263 31.8016C8.12513 31.0688 8.45013 30.3375 8.80481 29.6266C8.94812 29.3566 9.19119 29.1534 9.48222 29.0601C9.77324 28.9668 10.0892 28.991 10.3627 29.1273C10.6362 29.2636 10.8456 29.5014 10.9463 29.79C11.047 30.0785 11.031 30.395 10.9017 30.6719C10.572 31.3344 10.2611 32.0172 9.97669 32.7031C9.8872 32.9174 9.73605 33.1003 9.54242 33.2286C9.3488 33.3568 9.12143 33.4247 8.88919 33.4234ZM70.772 32.6422C70.5455 32.6421 70.3238 32.5764 70.1339 32.453C69.9439 32.3296 69.7938 32.1538 69.7017 31.9469C69.4017 31.2734 69.0767 30.6 68.7267 29.9469C68.6467 29.8104 68.5951 29.659 68.5752 29.5021C68.5552 29.3451 68.5673 29.1857 68.6106 29.0335C68.6539 28.8813 68.7276 28.7394 68.8273 28.6165C68.9269 28.4936 69.0504 28.3921 69.1903 28.3182C69.3302 28.2442 69.4837 28.1994 69.6414 28.1864C69.7991 28.1734 69.9578 28.1925 70.1079 28.2425C70.2581 28.2924 70.3965 28.3723 70.5149 28.4773C70.6334 28.5822 70.7293 28.7101 70.797 28.8531C71.1689 29.5531 71.5204 30.275 71.8423 30.9969C71.9216 31.1754 71.9552 31.3709 71.9398 31.5656C71.9245 31.7603 71.8608 31.9482 71.7545 32.112C71.6482 32.2759 71.5026 32.4107 71.3311 32.5041C71.1595 32.5975 70.9673 32.6466 70.772 32.6469V32.6422ZM13.0814 26.0938C12.8637 26.0938 12.6504 26.0332 12.4653 25.9187C12.2802 25.8043 12.1305 25.6406 12.0332 25.446C11.9359 25.2513 11.8947 25.0334 11.9142 24.8166C11.9338 24.5999 12.0133 24.3929 12.1439 24.2188C12.6126 23.5859 13.1251 22.9688 13.6439 22.3609C13.7446 22.2446 13.8673 22.1492 14.0049 22.0803C14.1425 22.0114 14.2923 21.9702 14.4458 21.9592C14.5994 21.9482 14.7535 21.9675 14.8996 22.016C15.0456 22.0646 15.1807 22.1414 15.297 22.2422C15.4133 22.3429 15.5087 22.4656 15.5776 22.6032C15.6466 22.7408 15.6877 22.8907 15.6987 23.0442C15.7098 23.1977 15.6905 23.3518 15.6419 23.4979C15.5933 23.6439 15.5165 23.779 15.4158 23.8953C14.9314 24.4563 14.4611 25.0391 14.0095 25.6281C13.9012 25.7721 13.7611 25.8891 13.6001 25.9698C13.4391 26.0506 13.2615 26.093 13.0814 26.0938ZM66.4064 25.4234C66.2297 25.4234 66.0553 25.3835 65.8962 25.3067C65.7372 25.2298 65.5975 25.1181 65.4876 24.9797C65.0283 24.4 64.5501 23.8297 64.0454 23.2828C63.9413 23.1691 63.8606 23.036 63.808 22.8911C63.7554 22.7462 63.7319 22.5923 63.7389 22.4383C63.7458 22.2842 63.7831 22.1331 63.8486 21.9935C63.9141 21.8539 64.0065 21.7286 64.1205 21.6248C64.2345 21.521 64.3678 21.4407 64.5129 21.3885C64.658 21.3363 64.8119 21.3133 64.9659 21.3207C65.1199 21.3281 65.271 21.3659 65.4104 21.4318C65.5497 21.4977 65.6748 21.5904 65.7783 21.7047C66.3126 22.2906 66.8329 22.9031 67.3236 23.5234C67.4598 23.6962 67.5447 23.9037 67.5686 24.1224C67.5925 24.3411 67.5545 24.562 67.4589 24.7601C67.3632 24.9582 67.2139 25.1255 67.0278 25.2428C66.8417 25.36 66.6263 25.4226 66.4064 25.4234ZM18.9595 20.0391C18.7169 20.0384 18.4805 19.9627 18.2827 19.8221C18.085 19.6816 17.9357 19.4832 17.8553 19.2543C17.775 19.0254 17.7675 18.7772 17.834 18.5439C17.9005 18.3106 18.0377 18.1037 18.2267 17.9516C18.8517 17.4547 19.4892 16.975 20.1392 16.5234C20.3945 16.3461 20.7097 16.2774 21.0157 16.3325C21.1671 16.3598 21.3117 16.4166 21.4413 16.4998C21.5708 16.5829 21.6826 16.6908 21.7704 16.8172C21.8583 16.9436 21.9203 17.086 21.9531 17.2364C21.9859 17.3868 21.9887 17.5422 21.9614 17.6937C21.9341 17.8451 21.8773 17.9898 21.7941 18.1193C21.7109 18.2488 21.6031 18.3606 21.4767 18.4484C20.8704 18.8703 20.2704 19.3172 19.6923 19.7813C19.4847 19.9485 19.2261 20.0395 18.9595 20.0391ZM60.3658 19.5141C60.1094 19.5148 59.86 19.4307 59.6564 19.275C59.0689 18.8281 58.4564 18.3938 57.8392 17.9875C57.5796 17.8166 57.3985 17.5495 57.3358 17.245C57.2731 16.9406 57.3339 16.6237 57.5048 16.3641C57.6758 16.1044 57.9428 15.9234 58.2473 15.8607C58.5517 15.798 58.8686 15.8588 59.1283 16.0297C59.7908 16.4656 60.4454 16.9297 61.0767 17.4109C61.2714 17.5597 61.4146 17.7657 61.4861 18.0001C61.5577 18.2345 61.5539 18.4853 61.4755 18.7175C61.397 18.9496 61.2477 19.1513 61.0487 19.2942C60.8496 19.4371 60.6108 19.514 60.3658 19.5141ZM26.1533 15.625C25.8856 15.6247 25.6261 15.5328 25.4179 15.3645C25.2098 15.1963 25.0655 14.9618 25.009 14.7001C24.9526 14.4385 24.9875 14.1654 25.1078 13.9263C25.2281 13.6872 25.4267 13.4965 25.6704 13.3859C26.3923 13.0594 27.1345 12.7609 27.8751 12.4781C28.1667 12.37 28.4892 12.3821 28.7718 12.5117C29.0545 12.6414 29.274 12.878 29.3822 13.1695C29.4903 13.4611 29.4782 13.7836 29.3486 14.0662C29.2189 14.3489 28.9823 14.5684 28.6908 14.6766C28.0001 14.9328 27.3079 15.2172 26.6345 15.5219C26.4832 15.59 26.3192 15.6251 26.1533 15.625ZM53.0673 15.2844C52.9111 15.2844 52.7565 15.2531 52.6126 15.1922C51.9298 14.9047 51.2298 14.6375 50.5283 14.3984C50.2557 14.2824 50.0372 14.0674 49.9168 13.7967C49.7963 13.526 49.7829 13.2198 49.8791 12.9396C49.9754 12.6594 50.1741 12.4261 50.4355 12.2866C50.6968 12.147 51.0013 12.1116 51.2876 12.1875C52.0392 12.4453 52.7908 12.7313 53.522 13.0391C53.7721 13.1436 53.9782 13.3316 54.1053 13.571C54.2323 13.8104 54.2725 14.0864 54.2189 14.3521C54.1652 14.6178 54.0212 14.8567 53.8112 15.0281C53.6012 15.1995 53.3384 15.2928 53.0673 15.2922V15.2844Z" fill="#F8BE32"/>
<path d="M57.3298 61.8172C57.0194 61.8172 56.7216 61.6941 56.5017 61.475L48.1158 53.0875C47.9088 52.8654 47.7961 52.5715 47.8014 52.2679C47.8068 51.9643 47.9298 51.6747 48.1445 51.46C48.3592 51.2453 48.6489 51.1223 48.9524 51.1169C49.256 51.1116 49.5499 51.2243 49.772 51.4313L58.1595 59.8172C58.3233 59.9812 58.4348 60.19 58.4798 60.4174C58.5249 60.6447 58.5016 60.8803 58.4128 61.0944C58.324 61.3084 58.1737 61.4913 57.9809 61.62C57.7882 61.7487 57.5616 61.8173 57.3298 61.8172ZM22.6939 61.7938C22.4621 61.7939 22.2355 61.7252 22.0428 61.5966C21.85 61.4679 21.6997 61.285 21.6109 61.0709C21.5221 60.8568 21.4988 60.6213 21.5439 60.3939C21.589 60.1666 21.7004 59.9577 21.8642 59.7937L30.2267 51.4313C30.3356 51.3224 30.4648 51.2361 30.607 51.1771C30.7492 51.1182 30.9017 51.0879 31.0556 51.0879C31.2096 51.0879 31.362 51.1182 31.5042 51.1771C31.6464 51.2361 31.7757 51.3224 31.8845 51.4313C31.9934 51.5401 32.0797 51.6693 32.1386 51.8116C32.1975 51.9538 32.2279 52.1062 32.2279 52.2602C32.2279 52.4141 32.1975 52.5665 32.1386 52.7088C32.0797 52.851 31.9934 52.9802 31.8845 53.0891L23.522 61.4516C23.4133 61.5603 23.2842 61.6466 23.1421 61.7053C23 61.764 22.8477 61.7941 22.6939 61.7938ZM39.922 34.0625C39.6112 34.0625 39.3131 33.939 39.0934 33.7193C38.8736 33.4995 38.7501 33.2014 38.7501 32.8906V24.6094C38.7501 24.2986 38.8736 24.0005 39.0934 23.7807C39.3131 23.561 39.6112 23.4375 39.922 23.4375C40.2328 23.4375 40.5309 23.561 40.7507 23.7807C40.9704 24.0005 41.0939 24.2986 41.0939 24.6094V32.8906C41.0939 33.2014 40.9704 33.4995 40.7507 33.7193C40.5309 33.939 40.2328 34.0625 39.922 34.0625Z" fill="#787681"/>
<path d="M12.8906 78.8281C10.1739 78.8325 7.53975 77.8944 5.43729 76.1738C3.33483 74.4532 1.89423 72.0567 1.36109 69.3928C0.827952 66.7288 1.23528 63.9625 2.51364 61.5653C3.792 59.1681 5.86223 57.2885 8.3714 56.247C10.8806 55.2054 13.6733 55.0664 16.2735 55.8537C18.8737 56.6409 21.1203 58.3056 22.6304 60.564C24.1405 62.8224 24.8205 65.5346 24.5546 68.2383C24.2886 70.942 23.0931 73.4698 21.1719 75.3906C20.0879 76.4834 18.7977 77.35 17.3761 77.9401C15.9545 78.5302 14.4298 78.8321 12.8906 78.8281Z" fill="#FED947"/>
<path d="M21.1766 58.7578C20.0928 57.6647 18.8026 56.7979 17.381 56.2078C15.9593 55.6177 14.4346 55.316 12.8953 55.3203C12.2395 55.3189 11.5846 55.3717 10.9375 55.4781C13.6727 55.9465 16.1541 57.367 17.9431 59.4883C19.7321 61.6097 20.7133 64.2953 20.7133 67.0703C20.7133 69.8453 19.7321 72.5309 17.9431 74.6523C16.1541 76.7736 13.6727 78.1941 10.9375 78.6625C11.5828 78.772 12.2361 78.8274 12.8906 78.8281C15.2117 78.8184 17.478 78.1223 19.4043 76.8274C21.3306 75.5325 22.8308 73.6968 23.7161 71.5512C24.6014 69.4056 24.8322 67.0461 24.3795 64.7696C23.9267 62.4931 22.8107 60.4014 21.1719 58.7578H21.1766Z" fill="#FECC30"/>
<path d="M12.8904 80C9.90335 80.0044 7.00718 78.9729 4.69551 77.0811C2.38384 75.1893 0.799759 72.5544 0.213237 69.6254C-0.373285 66.6965 0.0740569 63.6548 1.47902 61.0188C2.88398 58.3827 5.15961 56.3155 7.91807 55.1694C10.6765 54.0232 13.7471 53.8692 16.6064 54.7334C19.4657 55.5977 21.9368 57.4268 23.5986 59.9089C25.2604 62.3911 26.0099 65.3727 25.7195 68.3457C25.4291 71.3186 24.1168 74.0988 22.0061 76.2125C20.8134 77.4164 19.3934 78.3712 17.8285 79.0214C16.2636 79.6716 14.585 80.0043 12.8904 80ZM12.8904 56.486C10.4455 56.4816 8.07466 57.3254 6.18218 58.8735C4.28969 60.4215 2.99267 62.578 2.5122 64.9753C2.03173 67.3726 2.39755 69.8623 3.54731 72.0201C4.69707 74.1779 6.5596 75.8701 8.8174 76.8083C11.0752 77.7465 13.5885 77.8727 15.9289 77.1652C18.2693 76.4578 20.2919 74.9606 21.6519 72.9288C23.012 70.897 23.6253 68.4564 23.3872 66.023C23.1492 63.5896 22.0747 61.3141 20.3467 59.5844C19.3712 58.5996 18.2096 57.8186 16.9296 57.2867C15.6496 56.7547 14.2766 56.4826 12.8904 56.486Z" fill="#F8BE32"/>
<path d="M67.1094 78.8281C64.3926 78.8325 61.7585 77.8944 59.656 76.1738C57.5536 74.4532 56.113 72.0567 55.5798 69.3928C55.0467 66.7288 55.454 63.9625 56.7324 61.5653C58.0107 59.1681 60.081 57.2885 62.5901 56.247C65.0993 55.2054 67.8921 55.0664 70.4922 55.8537C73.0924 56.6409 75.3391 58.3056 76.8492 60.564C78.3593 62.8224 79.0393 65.5346 78.7733 68.2383C78.5073 70.942 77.3118 73.4698 75.3906 75.3906C74.3067 76.4834 73.0165 77.35 71.5949 77.9401C70.1733 78.5302 68.6486 78.8321 67.1094 78.8281Z" fill="#FED947"/>
<path d="M75.3955 58.7578C74.3118 57.6647 73.0216 56.7979 71.5999 56.2078C70.1783 55.6177 68.6535 55.316 67.1143 55.3203C66.4598 55.3212 65.8066 55.3761 65.1611 55.4844C67.8963 55.9528 70.3778 57.3732 72.1667 59.4946C73.9557 61.616 74.9369 64.3016 74.9369 67.0766C74.9369 69.8515 73.9557 72.5372 72.1667 74.6585C70.3778 76.7799 67.8963 78.2003 65.1611 78.6687C65.8064 78.7783 66.4597 78.8337 67.1143 78.8344C69.4353 78.8246 71.7016 78.1285 73.6279 76.8337C75.5542 75.5388 77.0544 73.703 77.9397 71.5574C78.825 69.4119 79.0558 67.0523 78.6031 64.7758C78.1504 62.4994 77.0344 60.4077 75.3955 58.764V58.7578Z" fill="#FECC30"/>
<path d="M67.1092 80C64.1221 80.0044 61.2259 78.9729 58.9143 77.0811C56.6026 75.1893 55.0185 72.5544 54.432 69.6254C53.8455 66.6965 54.2928 63.6548 55.6978 61.0188C57.1027 58.3827 59.3784 56.3155 62.1368 55.1694C64.8953 54.0232 67.9658 53.8692 70.8251 54.7334C73.6845 55.5977 76.1556 57.4268 77.8174 59.9089C79.4791 62.3911 80.2287 65.3727 79.9383 68.3457C79.6479 71.3186 78.3355 74.0988 76.2248 76.2125C75.0322 77.4164 73.6121 78.3712 72.0472 79.0214C70.4823 79.6716 68.8038 80.0043 67.1092 80ZM67.1092 56.486C64.6642 56.4816 62.2934 57.3254 60.4009 58.8735C58.5084 60.4215 57.2114 62.578 56.7309 64.9753C56.2505 67.3726 56.6163 69.8623 57.7661 72.0201C58.9158 74.1779 60.7783 75.8701 63.0361 76.8083C65.2939 77.7465 67.8073 77.8727 70.1476 77.1652C72.488 76.4578 74.5106 74.9606 75.8707 72.9288C77.2307 70.897 77.844 68.4564 77.606 66.023C77.368 63.5896 76.2934 61.3141 74.5654 59.5844C73.5899 58.5996 72.4284 57.8186 71.1483 57.2867C69.8683 56.7547 68.4953 56.4826 67.1092 56.486Z" fill="#F8BE32"/>
<path d="M40 24.6875C36.8872 24.6821 33.9039 23.4406 31.7063 21.236C29.5087 19.0313 28.2767 16.0441 28.2813 12.9312C28.2857 11.0049 28.765 9.10944 29.6766 7.4125C30.5883 5.71556 31.9042 4.26952 33.5079 3.20235C35.1116 2.13519 36.9536 1.47981 38.871 1.29423C40.7883 1.10865 42.7219 1.39858 44.5005 2.13836C46.2791 2.87815 47.8479 4.04497 49.068 5.53557C50.2882 7.02617 51.1221 8.79457 51.4959 10.6843C51.8698 12.574 51.772 14.5267 51.2113 16.3696C50.6506 18.2125 49.6442 19.8887 48.2813 21.25C47.1975 22.3431 45.9073 23.2099 44.4857 23.8C43.064 24.3901 41.5393 24.6918 40 24.6875Z" fill="#FED947"/>
<path d="M48.2812 4.61564C47.1973 3.52282 45.9071 2.65621 44.4855 2.06611C43.0639 1.47601 41.5392 1.17418 40 1.17814C39.3455 1.17881 38.6922 1.23421 38.0469 1.34376C40.7808 1.81062 43.2611 3.2301 45.0486 5.35074C46.836 7.47137 47.8152 10.1562 47.8125 12.9297C47.816 15.7041 46.8373 18.3901 45.0499 20.5119C43.2624 22.6337 40.7815 24.0543 38.0469 24.5219C38.6923 24.6307 39.3455 24.6861 40 24.6875C43.1129 24.6821 46.0961 23.4406 48.2937 21.236C50.4913 19.0313 51.7233 16.0441 51.7187 12.9313C51.7231 11.3869 51.4216 9.85693 50.8316 8.42968C50.2416 7.00243 49.3748 5.70615 48.2812 4.61564Z" fill="#FECC30"/>
<path d="M40 25.8578C38.3047 25.8554 36.6265 25.519 35.0612 24.868C33.4959 24.2169 32.0742 23.264 30.8772 22.0635C29.6802 20.863 28.7314 19.4385 28.0849 17.8713C27.4384 16.3041 27.1069 14.625 27.1094 12.9297C27.1137 10.811 27.6402 8.72596 28.6422 6.85918C29.6443 4.99239 31.0911 3.40138 32.8545 2.22693C34.6179 1.05248 36.6437 0.330807 38.7524 0.125759C40.8612 -0.0792886 42.9881 0.238616 44.9447 1.05134C46.9014 1.86407 48.6275 3.14656 49.9705 4.78533C51.3134 6.4241 52.2317 8.36862 52.6441 10.4468C53.0565 12.525 52.9502 14.6729 52.3348 16.7002C51.7194 18.7276 50.6137 20.572 49.1156 22.0703C47.923 23.2742 46.503 24.229 44.9381 24.8792C43.3732 25.5294 41.6946 25.8621 40 25.8578ZM40 2.34376C38.6124 2.34622 37.2388 2.62199 35.9578 3.15534C34.6767 3.68868 33.5133 4.46915 32.5339 5.45216C31.5545 6.43518 30.7784 7.60149 30.2498 8.8845C29.7212 10.1675 29.4505 11.5421 29.4531 12.9297C29.4578 14.663 29.8896 16.3685 30.7103 17.8952C31.531 19.4219 32.7153 20.7229 34.1585 21.6829C35.6017 22.6429 37.2593 23.2324 38.9846 23.3993C40.7098 23.5662 42.4497 23.3053 44.0501 22.6397C45.6505 21.974 47.0623 20.9242 48.1604 19.5831C49.2585 18.242 50.0091 16.6509 50.3459 14.9506C50.6826 13.2503 50.5952 11.4932 50.0911 9.83471C49.5871 8.17627 48.6822 6.66761 47.4563 5.44219C46.4808 4.45735 45.3193 3.67626 44.0392 3.14434C42.7592 2.61242 41.3862 2.34029 40 2.34376Z" fill="#F8BE32"/>
<path d="M38.714 15.1781H35.7671C35.4563 15.1781 35.1582 15.0547 34.9384 14.8349C34.7187 14.6151 34.5952 14.3171 34.5952 14.0063C34.5952 13.6954 34.7187 13.3974 34.9384 13.1776C35.1582 12.9578 35.4563 12.8344 35.7671 12.8344H38.714C39.3557 12.8182 39.9657 12.5519 40.4139 12.0923C40.8621 11.6327 41.1129 11.0162 41.1129 10.3742C41.1129 9.73227 40.8621 9.11574 40.4139 8.65614C39.9657 8.19653 39.3557 7.93024 38.714 7.91406H36.5983C36.2875 7.91406 35.9895 7.7906 35.7697 7.57083C35.5499 7.35106 35.4265 7.05299 35.4265 6.74219C35.4265 6.43139 35.5499 6.13332 35.7697 5.91355C35.9895 5.69378 36.2875 5.57031 36.5983 5.57031H38.714C39.973 5.59302 41.1729 6.10913 42.0552 7.00756C42.9376 7.906 43.432 9.11494 43.432 10.3742C43.432 11.6335 42.9376 12.8424 42.0552 13.7409C41.1729 14.6393 39.973 15.1554 38.714 15.1781Z" fill="white"/>
<path d="M44.3141 7.91406H35.7673C35.4565 7.91406 35.1584 7.7906 34.9386 7.57083C34.7189 7.35106 34.5954 7.05299 34.5954 6.74219C34.5954 6.43139 34.7189 6.13332 34.9386 5.91355C35.1584 5.69378 35.4565 5.57031 35.7673 5.57031H44.3141C44.6249 5.57031 44.923 5.69378 45.1428 5.91355C45.3625 6.13332 45.486 6.43139 45.486 6.74219C45.486 7.05299 45.3625 7.35106 45.1428 7.57083C44.923 7.7906 44.6249 7.91406 44.3141 7.91406ZM44.3141 11.4859H35.7673C35.4565 11.4859 35.1584 11.3625 34.9386 11.1427C34.7189 10.9229 34.5954 10.6249 34.5954 10.3141C34.5954 10.0033 34.7189 9.70519 34.9386 9.48542C35.1584 9.26565 35.4565 9.14219 35.7673 9.14219H44.3141C44.6249 9.14219 44.923 9.26565 45.1428 9.48542C45.3625 9.70519 45.486 10.0033 45.486 10.3141C45.486 10.6249 45.3625 10.9229 45.1428 11.1427C44.923 11.3625 44.6249 11.4859 44.3141 11.4859ZM42.1954 21.4859C41.8895 21.4863 41.5956 21.3668 41.3766 21.1531L34.8985 14.8437C34.676 14.6266 34.5488 14.33 34.545 14.0191C34.5412 13.7082 34.6611 13.4085 34.8782 13.1859C35.0953 12.9634 35.392 12.8362 35.7029 12.8324C36.0138 12.8286 36.3135 12.9485 36.536 13.1656L43.0126 19.4797C43.1794 19.6423 43.2939 19.851 43.3416 20.079C43.3892 20.307 43.3678 20.5441 43.2801 20.7599C43.1924 20.9758 43.0424 21.1605 42.8492 21.2907C42.656 21.4208 42.4283 21.4904 42.1954 21.4906V21.4859Z" fill="white"/>
<path d="M41.5626 31.1172C41.9265 30.8837 42.3351 30.7287 42.7623 30.6622C43.1895 30.5958 43.6258 30.6193 44.0434 30.7312C44.461 30.8431 44.8506 31.0411 45.1873 31.3123C45.524 31.5835 45.8003 31.9221 45.9986 32.3063C46.2719 32.8347 46.6912 33.2737 47.2067 33.5709C47.7221 33.868 48.3121 34.011 48.9064 33.9828C49.3383 33.9628 49.7696 34.0331 50.1728 34.1893C50.576 34.3454 50.9422 34.584 51.2479 34.8897C51.5536 35.1955 51.7922 35.5616 51.9484 35.9648C52.1045 36.368 52.1749 36.7993 52.1548 37.2313C52.1272 37.8251 52.2705 38.4143 52.5677 38.9292C52.8648 39.444 53.3034 39.8628 53.8314 40.1359C54.2155 40.3345 54.5539 40.6111 54.825 40.9479C55.0961 41.2848 55.2939 41.6745 55.4058 42.0921C55.5177 42.5098 55.5412 42.9462 55.4749 43.3734C55.4085 43.8007 55.2538 44.2094 55.0204 44.5734C54.6998 45.0738 54.5294 45.6557 54.5294 46.25C54.5294 46.8443 54.6998 47.4262 55.0204 47.9266C55.2538 48.2906 55.4085 48.6993 55.4749 49.1266C55.5412 49.5538 55.5177 49.9902 55.4058 50.4079C55.2939 50.8255 55.0961 51.2152 54.825 51.5521C54.5539 51.8889 54.2155 52.1655 53.8314 52.3641C53.3034 52.6372 52.8648 53.056 52.5677 53.5708C52.2705 54.0857 52.1272 54.6749 52.1548 55.2688C52.1749 55.7007 52.1045 56.132 51.9484 56.5352C51.7922 56.9384 51.5536 57.3045 51.2479 57.6103C50.9422 57.916 50.576 58.1546 50.1728 58.3107C49.7696 58.4669 49.3383 58.5372 48.9064 58.5172C48.3126 58.4896 47.7233 58.6329 47.2085 58.93C46.6936 59.2272 46.2748 59.6658 46.0017 60.1938C45.8035 60.5784 45.527 60.9173 45.1901 61.1889C44.8532 61.4604 44.4632 61.6585 44.0453 61.7705C43.6273 61.8824 43.1905 61.9058 42.763 61.839C42.3354 61.7723 41.9266 61.6169 41.5626 61.3828C41.0619 61.0623 40.4798 60.8919 39.8853 60.8919C39.2908 60.8919 38.7087 61.0623 38.2079 61.3828C37.8439 61.6161 37.4352 61.7709 37.0079 61.8373C36.5807 61.9036 36.1443 61.8801 35.7266 61.7682C35.309 61.6563 34.9193 61.4584 34.5825 61.1873C34.2456 60.9162 33.9691 60.5778 33.7705 60.1938C33.4973 59.6658 33.0785 59.2272 32.5637 58.93C32.0488 58.6329 31.4596 58.4896 30.8658 58.5172C30.4339 58.5372 30.0025 58.4669 29.5993 58.3107C29.1961 58.1546 28.83 57.916 28.5242 57.6103C28.2185 57.3045 27.9799 56.9384 27.8238 56.5352C27.6676 56.132 27.5973 55.7007 27.6173 55.2688C27.6446 54.6746 27.5009 54.0851 27.2032 53.5703C26.9054 53.0554 26.4662 52.6367 25.9376 52.3641C25.5536 52.1655 25.2152 51.8889 24.9441 51.5521C24.673 51.2152 24.4751 50.8255 24.3632 50.4079C24.2513 49.9902 24.2278 49.5538 24.2941 49.1266C24.3605 48.6993 24.5153 48.2906 24.7486 47.9266C25.0699 47.4264 25.2408 46.8445 25.2408 46.25C25.2408 45.6555 25.0699 45.0736 24.7486 44.5734C24.5153 44.2094 24.3605 43.8007 24.2941 43.3734C24.2278 42.9462 24.2513 42.5098 24.3632 42.0921C24.4751 41.6745 24.673 41.2848 24.9441 40.9479C25.2152 40.6111 25.5536 40.3345 25.9376 40.1359C26.4656 39.8628 26.9042 39.444 27.2014 38.9292C27.4985 38.4143 27.6418 37.8251 27.6142 37.2313C27.5942 36.7993 27.6645 36.368 27.8206 35.9648C27.9768 35.5616 28.2154 35.1955 28.5211 34.8897C28.8269 34.584 29.193 34.3454 29.5962 34.1893C29.9994 34.0331 30.4307 33.9628 30.8626 33.9828C31.4564 34.0104 32.0457 33.8671 32.5605 33.57C33.0754 33.2728 33.4942 32.8342 33.7673 32.3063C33.9659 31.9222 34.2425 31.5838 34.5793 31.3127C34.9162 31.0416 35.3059 30.8438 35.7235 30.7318C36.1412 30.6199 36.5776 30.5964 37.0048 30.6628C37.4321 30.7291 37.8408 30.8839 38.2048 31.1172C38.7059 31.4384 39.2886 31.6091 39.8837 31.6091C40.4789 31.6091 41.0616 31.4384 41.5626 31.1172Z" fill="#EB304A"/>
<path d="M55.0188 47.9266C54.6982 47.4261 54.5278 46.8443 54.5278 46.25C54.5278 45.6557 54.6982 45.0738 55.0188 44.5734C55.2522 44.2094 55.4069 43.8007 55.4733 43.3734C55.5396 42.9462 55.5161 42.5098 55.4042 42.0921C55.2923 41.6745 55.0945 41.2848 54.8234 40.9479C54.5523 40.6111 54.2139 40.3345 53.8298 40.1359C53.3018 39.8628 52.8632 39.444 52.5661 38.9291C52.2689 38.4143 52.1256 37.825 52.1532 37.2312C52.1732 36.7995 52.103 36.3683 51.9469 35.9652C51.7908 35.5621 51.5524 35.196 51.2468 34.8903C50.9413 34.5846 50.5753 34.346 50.1723 34.1897C49.7693 34.0335 49.3381 33.963 48.9063 33.9828C48.3125 34.0104 47.7233 33.8671 47.2084 33.57C46.6936 33.2728 46.2748 32.8342 46.0017 32.3062C45.8034 31.9216 45.527 31.5826 45.1901 31.3111C44.8532 31.0396 44.4632 30.8415 44.0452 30.7295C43.6272 30.6176 43.1905 30.5942 42.7629 30.661C42.3354 30.7277 41.9265 30.8831 41.5626 31.1172C41.5032 31.1547 41.4438 31.189 41.3845 31.2219C41.7741 31.5061 42.0919 31.8774 42.3126 32.3062C42.5857 32.8342 43.0045 33.2728 43.5194 33.57C44.0342 33.8671 44.6235 34.0104 45.2173 33.9828C45.6492 33.9628 46.0805 34.0331 46.4837 34.1892C46.8869 34.3454 47.2531 34.584 47.5588 34.8897C47.8645 35.1955 48.1031 35.5616 48.2593 35.9648C48.4154 36.368 48.4858 36.7993 48.4657 37.2312C48.4381 37.825 48.5814 38.4143 48.8786 38.9291C49.1757 39.444 49.6143 39.8628 50.1423 40.1359C50.5264 40.3345 50.8648 40.6111 51.1359 40.9479C51.407 41.2848 51.6048 41.6745 51.7167 42.0921C51.8286 42.5098 51.8521 42.9462 51.7858 43.3734C51.7194 43.8007 51.5647 44.2094 51.3313 44.5734C51.0107 45.0738 50.8403 45.6557 50.8403 46.25C50.8403 46.8443 51.0107 47.4261 51.3313 47.9266C51.5647 48.2906 51.7194 48.6993 51.7858 49.1266C51.8521 49.5538 51.8286 49.9902 51.7167 50.4079C51.6048 50.8255 51.407 51.2152 51.1359 51.552C50.8648 51.8889 50.5264 52.1654 50.1423 52.364C49.6143 52.6372 49.1757 53.056 48.8786 53.5708C48.5814 54.0857 48.4381 54.6749 48.4657 55.2687C48.4858 55.7006 48.4154 56.132 48.2593 56.5352C48.1031 56.9384 47.8645 57.3045 47.5588 57.6103C47.2531 57.916 46.8869 58.1546 46.4837 58.3107C46.0805 58.4669 45.6492 58.5372 45.2173 58.5172C44.6235 58.4896 44.0342 58.6328 43.5194 58.93C43.0045 59.2272 42.5857 59.6657 42.3126 60.1937C42.0919 60.6226 41.7741 60.9939 41.3845 61.2781C41.4438 61.3109 41.5032 61.3453 41.5626 61.3828C41.9264 61.6163 42.335 61.7713 42.7622 61.8377C43.1894 61.9042 43.6258 61.8807 44.0434 61.7688C44.461 61.6568 44.8506 61.4589 45.1873 61.1877C45.524 60.9165 45.8003 60.5779 45.9985 60.1937C46.2719 59.6652 46.6912 59.2263 47.2066 58.9291C47.7221 58.6319 48.312 58.489 48.9063 58.5172C49.3383 58.5372 49.7696 58.4669 50.1728 58.3107C50.576 58.1546 50.9421 57.916 51.2479 57.6103C51.5536 57.3045 51.7922 56.9384 51.9483 56.5352C52.1045 56.132 52.1748 55.7006 52.1548 55.2687C52.1272 54.6749 52.2705 54.0857 52.5676 53.5708C52.8648 53.056 53.3034 52.6372 53.8313 52.364C54.2154 52.1654 54.5538 51.8889 54.8249 51.552C55.096 51.2152 55.2938 50.8255 55.4058 50.4079C55.5177 49.9902 55.5412 49.5538 55.4748 49.1266C55.4085 48.6993 55.2537 48.2906 55.0204 47.9266H55.0188ZM37.8767 31.1172C37.9313 31.0812 37.9876 31.05 38.0438 31.0187C37.5255 30.7298 36.9353 30.5954 36.343 30.6314C35.7508 30.6674 35.1812 30.8723 34.7017 31.2219C35.1914 31.4916 35.7448 31.6243 36.3035 31.6058C36.8623 31.5874 37.4058 31.4186 37.8767 31.1172ZM37.8767 61.3828C37.406 61.0809 36.8625 60.9118 36.3036 60.8934C35.7447 60.8749 35.1912 61.0079 34.7017 61.2781C35.1812 61.6277 35.7508 61.8326 36.343 61.8685C36.9353 61.9045 37.5255 61.7701 38.0438 61.4812C37.9876 61.45 37.9313 61.4187 37.8767 61.3828Z" fill="#E4222E"/>
<path d="M44.972 54.7375C44.1587 54.7375 43.3705 54.4555 42.7418 53.9395C42.113 53.4235 41.6827 52.7055 41.524 51.9077C41.3653 51.11 41.4882 50.2819 41.8716 49.5646C42.255 48.8473 42.8753 48.2851 43.6267 47.9739C44.3782 47.6626 45.2143 47.6215 45.9926 47.8576C46.771 48.0938 47.4434 48.5924 47.8952 49.2687C48.3471 49.945 48.5505 50.7571 48.4708 51.5665C48.391 52.3759 48.0331 53.1327 47.458 53.7078C47.1323 54.0353 46.7449 54.295 46.3182 54.4717C45.8915 54.6485 45.4339 54.7388 44.972 54.7375ZM44.972 50.05C44.7793 50.0498 44.5894 50.0972 44.4193 50.188C44.2492 50.2788 44.1042 50.4101 43.997 50.5703C43.8898 50.7306 43.8238 50.9148 43.8048 51.1067C43.7859 51.2985 43.8145 51.4921 43.8883 51.6702C43.962 51.8483 44.0786 52.0055 44.2276 52.1278C44.3767 52.2501 44.5536 52.3337 44.7427 52.3713C44.9318 52.4089 45.1272 52.3992 45.3117 52.3432C45.4961 52.2871 45.6639 52.1864 45.8002 52.05C45.9639 51.8861 46.0753 51.6774 46.1204 51.4502C46.1656 51.223 46.1424 50.9876 46.0537 50.7736C45.9651 50.5596 45.8151 50.3766 45.6226 50.2478C45.43 50.1191 45.2037 50.0502 44.972 50.05ZM35.0283 44.7938C34.2149 44.7938 33.4267 44.5117 32.798 43.9957C32.1693 43.4797 31.7389 42.7617 31.5802 41.964C31.4216 41.1662 31.5444 40.3382 31.9278 39.6209C32.3113 38.9035 32.9315 38.3414 33.683 38.0301C34.4344 37.7189 35.2705 37.6778 36.0489 37.9139C36.8272 38.15 37.4996 38.6487 37.9515 39.325C38.4033 40.0013 38.6067 40.8133 38.527 41.6228C38.4473 42.4322 38.0894 43.1889 37.5142 43.7641C37.1885 44.0916 36.8011 44.3512 36.3744 44.528C35.9477 44.7047 35.4902 44.795 35.0283 44.7938ZM35.0283 40.1063C34.8355 40.1061 34.6457 40.1535 34.4756 40.2443C34.3055 40.335 34.1604 40.4663 34.0532 40.6266C33.946 40.7868 33.88 40.971 33.8611 41.1629C33.8421 41.3548 33.8708 41.5483 33.9445 41.7265C34.0183 41.9046 34.1349 42.0618 34.2839 42.1841C34.4329 42.3063 34.6098 42.39 34.7989 42.4276C34.988 42.4651 35.1835 42.4554 35.3679 42.3994C35.5524 42.3434 35.7202 42.2427 35.8564 42.1063C36.0201 41.9424 36.1315 41.7337 36.1767 41.5065C36.2218 41.2793 36.1986 41.0438 36.11 40.8298C36.0214 40.6158 35.8713 40.4329 35.6788 40.3041C35.4863 40.1753 35.2599 40.1065 35.0283 40.1063ZM36.3924 51.0297C36.1607 51.0291 35.9345 50.9599 35.7421 50.8309C35.5497 50.7019 35.3998 50.5189 35.3113 50.3049C35.2227 50.0909 35.1995 49.8554 35.2445 49.6282C35.2895 49.401 35.4008 49.1922 35.5642 49.0281L42.7783 41.8141C42.9981 41.5942 43.2963 41.4707 43.6072 41.4707C43.9181 41.4707 44.2163 41.5942 44.4361 41.8141C44.6559 42.0339 44.7795 42.3321 44.7795 42.643C44.7795 42.9539 44.6559 43.252 44.4361 43.4719L37.222 50.686C37.0019 50.9059 36.7035 51.0295 36.3924 51.0297ZM65.8236 69.3203H62.8767C62.5659 69.3203 62.2679 69.1969 62.0481 68.9771C61.8283 68.7573 61.7049 68.4592 61.7049 68.1484C61.7049 67.8376 61.8283 67.5396 62.0481 67.3198C62.2679 67.1 62.5659 66.9766 62.8767 66.9766H65.8236C66.4653 66.9604 67.0754 66.6941 67.5235 66.2345C67.9717 65.7749 68.2225 65.1584 68.2225 64.5164C68.2225 63.8745 67.9717 63.2579 67.5235 62.7983C67.0754 62.3387 66.4653 62.0724 65.8236 62.0563H63.708C63.3972 62.0563 63.0991 61.9328 62.8793 61.713C62.6596 61.4933 62.5361 61.1952 62.5361 60.8844C62.5361 60.5736 62.6596 60.2755 62.8793 60.0557C63.0991 59.836 63.3972 59.7125 63.708 59.7125H65.8236C67.0827 59.7352 68.2825 60.2513 69.1649 61.1498C70.0473 62.0482 70.5417 63.2571 70.5417 64.5164C70.5417 65.7757 70.0473 66.9846 69.1649 67.8831C68.2825 68.7815 67.0827 69.2976 65.8236 69.3203Z" fill="white"/>
<path d="M71.4233 62.0562H62.8765C62.5657 62.0562 62.2676 61.9328 62.0478 61.713C61.8281 61.4932 61.7046 61.1952 61.7046 60.8844C61.7046 60.5736 61.8281 60.2755 62.0478 60.0557C62.2676 59.836 62.5657 59.7125 62.8765 59.7125H71.4233C71.7341 59.7125 72.0322 59.836 72.252 60.0557C72.4717 60.2755 72.5952 60.5736 72.5952 60.8844C72.5952 61.1952 72.4717 61.4932 72.252 61.713C72.0322 61.9328 71.7341 62.0562 71.4233 62.0562ZM71.4233 65.625H62.8765C62.5657 65.625 62.2676 65.5015 62.0478 65.2818C61.8281 65.062 61.7046 64.7639 61.7046 64.4531C61.7046 64.1423 61.8281 63.8442 62.0478 63.6245C62.2676 63.4047 62.5657 63.2812 62.8765 63.2812H71.4233C71.7341 63.2812 72.0322 63.4047 72.252 63.6245C72.4717 63.8442 72.5952 64.1423 72.5952 64.4531C72.5952 64.7639 72.4717 65.062 72.252 65.2818C72.0322 65.5015 71.7341 65.625 71.4233 65.625ZM69.3046 75.625C68.9987 75.6253 68.7048 75.5059 68.4858 75.2922L62.0077 68.9781C61.7958 68.7586 61.6778 68.4653 61.6785 68.1602C61.6793 67.8552 61.7988 67.5624 62.0117 67.344C62.2247 67.1256 62.5143 66.9986 62.8192 66.9901C63.1242 66.9816 63.4204 67.0922 63.6452 67.2984L70.1233 73.6141C70.2902 73.7768 70.4048 73.9856 70.4524 74.2138C70.5 74.4419 70.4785 74.6791 70.3906 74.895C70.3027 75.1109 70.1524 75.2957 69.959 75.4257C69.7655 75.5557 69.5377 75.6251 69.3046 75.625ZM11.6046 69.3203H8.65771C8.34691 69.3203 8.04884 69.1968 7.82907 68.9771C7.60931 68.7573 7.48584 68.4592 7.48584 68.1484C7.48584 67.8376 7.60931 67.5396 7.82907 67.3198C8.04884 67.1 8.34691 66.9766 8.65771 66.9766H11.6046C12.2463 66.9604 12.8563 66.6941 13.3045 66.2345C13.7527 65.7749 14.0035 65.1583 14.0035 64.5164C14.0035 63.8745 13.7527 63.2579 13.3045 62.7983C12.8563 62.3387 12.2463 62.0724 11.6046 62.0562H9.48896C9.17816 62.0562 8.88009 61.9328 8.66032 61.713C8.44056 61.4932 8.31709 61.1952 8.31709 60.8844C8.31709 60.5736 8.44056 60.2755 8.66032 60.0557C8.88009 59.836 9.17816 59.7125 9.48896 59.7125H11.6046C12.8637 59.7352 14.0635 60.2513 14.9459 61.1497C15.8282 62.0482 16.3226 63.2571 16.3226 64.5164C16.3226 65.7757 15.8282 66.9846 14.9459 67.8831C14.0635 68.7815 12.8637 69.2976 11.6046 69.3203Z" fill="white"/>
<path d="M17.2048 62.0562H8.65792C8.34712 62.0562 8.04904 61.9328 7.82928 61.713C7.60951 61.4932 7.48604 61.1952 7.48604 60.8844C7.48604 60.5736 7.60951 60.2755 7.82928 60.0557C8.04904 59.836 8.34712 59.7125 8.65792 59.7125H17.2048C17.5156 59.7125 17.8137 59.836 18.0334 60.0557C18.2532 60.2755 18.3767 60.5736 18.3767 60.8844C18.3767 61.1952 18.2532 61.4932 18.0334 61.713C17.8137 61.9328 17.5156 62.0562 17.2048 62.0562ZM17.2048 65.625H8.65792C8.34712 65.625 8.04904 65.5015 7.82928 65.2818C7.60951 65.062 7.48604 64.7639 7.48604 64.4531C7.48604 64.1423 7.60951 63.8442 7.82928 63.6245C8.04904 63.4047 8.34712 63.2812 8.65792 63.2812H17.2048C17.5156 63.2812 17.8137 63.4047 18.0334 63.6245C18.2532 63.8442 18.3767 64.1423 18.3767 64.4531C18.3767 64.7639 18.2532 65.062 18.0334 65.2818C17.8137 65.5015 17.5156 65.625 17.2048 65.625ZM15.086 75.625C14.7801 75.6253 14.4862 75.5059 14.2673 75.2922L7.78917 68.9812C7.57729 68.7618 7.45922 68.4684 7.45996 68.1634C7.46071 67.8583 7.58022 67.5655 7.79317 67.3471C8.00611 67.1287 8.29575 67.0018 8.60068 66.9933C8.90562 66.9848 9.20188 67.0953 9.42667 67.3016L15.9048 73.6172C16.0706 73.7801 16.1842 73.9886 16.2312 74.2163C16.2782 74.4439 16.2564 74.6804 16.1686 74.8956C16.0809 75.1108 15.9311 75.2951 15.7383 75.425C15.5455 75.5549 15.3185 75.6245 15.086 75.625Z" fill="white"/>
</g>
<defs>
<clipPath id="clip0_271_211">
<rect width="80" height="80" fill="white"/>
</clipPath>
</defs>
</svg>
