<svg width="80" height="80" viewBox="0 0 80 80" fill="none" xmlns="http://www.w3.org/2000/svg">
<path d="M60 77.5V2.5H7.5V77.5" fill="#2769B3"/>
<path d="M55 77.4587V77.5H2.5V7.5H43.75L55 18.75V77.4587Z" fill="#3C82C2"/>
<path d="M6.25 7.5V67.5C6.25 70.9512 9.04875 73.75 12.5 73.75H55V18.75L43.75 7.5H6.25Z" fill="#56A0D9"/>
<path d="M43.75 7.5V18.75H55" fill="#19529D"/>
<path d="M12.5 20C11.8113 20 11.25 19.4387 11.25 18.75C11.25 18.0613 11.8113 17.5 12.5 17.5C13.1887 17.5 13.75 18.0613 13.75 18.75H16.25C16.25 17.1225 15.2013 15.7475 13.75 15.23V13.75H11.25V15.23C9.79875 15.7475 8.75 17.1225 8.75 18.75C8.75 20.8175 10.4325 22.5 12.5 22.5C13.1887 22.5 13.75 23.0613 13.75 23.75C13.75 24.4387 13.1887 25 12.5 25C11.8113 25 11.25 24.4387 11.25 23.75H8.75C8.75 25.3775 9.79875 26.7525 11.25 27.27V28.75H13.75V27.27C15.2013 26.7525 16.25 25.3775 16.25 23.75C16.25 21.6825 14.5675 20 12.5 20Z" fill="#F9CB66"/>
<path d="M33.75 13.75H21.25V16.25H33.75V13.75Z" fill="white"/>
<path d="M38.75 18.75H21.25V21.25H38.75V18.75Z" fill="white"/>
<path d="M51.25 23.75H21.25V26.25H51.25V23.75Z" fill="white"/>
<path d="M50 30H22.5V35H50V30Z" fill="white"/>
<path d="M26.25 38.75H6.25V41.25H26.25V38.75Z" fill="white"/>
<path d="M22.5 43.75H6.25V46.25H22.5V43.75Z" fill="white"/>
<path d="M12.5 73.75C12.3388 73.75 12.1762 73.7187 12.0212 73.655C11.555 73.4612 11.25 73.005 11.25 72.5V68.75C11.25 68.0613 10.6887 67.5 10 67.5C9.31125 67.5 8.75 68.0613 8.75 68.75V73.75H6.25V68.75C6.25 66.6825 7.9325 65 10 65C12.0675 65 13.75 66.6825 13.75 68.75V69.4825L15.3663 67.8662C15.7225 67.5087 16.2588 67.4 16.7288 67.595C17.195 67.7888 17.5 68.245 17.5 68.75V70.7662L19.605 70.0637C20.0538 69.9125 20.5488 70.03 20.8838 70.3662C21.445 70.9275 22.2237 71.25 23.0175 71.25H25V73.75H23.0175C21.815 73.75 20.67 73.3675 19.7238 72.66L16.6463 73.6863C16.2638 73.8125 15.845 73.75 15.52 73.5138C15.1925 73.2788 15 72.9013 15 72.5V71.7675L13.3837 73.3838C13.145 73.6225 12.825 73.75 12.5 73.75Z" fill="white"/>
<path d="M28.75 48.75H6.25V51.25H28.75V48.75Z" fill="white"/>
<path d="M26.25 53.75H6.25V56.25H26.25V53.75Z" fill="white"/>
<path d="M33.75 58.75H12.5V61.25H33.75V58.75Z" fill="white"/>
<path d="M68.75 69.85C68.75 69.9 68.75 69.95 68.7375 70C68.6625 71.3875 67.5125 72.5 66.1 72.5H65C65 73.1875 64.725 73.8125 64.2625 74.2625C63.8125 74.725 63.1875 75 62.5 75C61.7 75 60.9375 74.6875 60.3625 74.1125L60 73.75C60 74.4375 59.725 75.0625 59.2625 75.5125C58.8125 75.975 58.1875 76.25 57.5 76.25C56.7 76.25 55.9375 75.9375 55.3625 75.3625L55 75C55 75.6875 54.725 76.3125 54.2625 76.7625C53.8125 77.225 53.1875 77.5 52.5 77.5C51.7 77.5 50.925 77.1875 50.3625 76.6125L42.5 68.75H40V53.75L43.2 54.55C42.75 55.05 42.5 55.7 42.5 56.3625C42.5 57.0875 42.7875 57.7875 43.3 58.3C44.3875 59.3875 45.8625 60 47.4 60C49.075 60 50.7 59.4125 52 58.3375L55.45 55.45L67.975 67.975C68.475 68.475 68.75 69.15 68.75 69.85Z" fill="#EDB8AC"/>
<path d="M50.3625 74.1125C50.925 74.6875 51.7 75 52.5 75C53.1875 75 53.8125 74.725 54.2625 74.2625C54.725 73.8125 55 73.1875 55 72.5L55.3625 72.8625C55.9375 73.4375 56.7 73.75 57.5 73.75C58.1875 73.75 58.8125 73.475 59.2625 73.0125C59.725 72.5625 60 71.9375 60 71.25L60.3625 71.6125C60.9375 72.1875 61.7 72.5 62.5 72.5C63.1875 72.5 63.8125 72.225 64.2625 71.7625C64.725 71.3125 65 70.6875 65 70H66.1C67.11 70 67.9775 69.4262 68.4212 68.5962C68.3012 68.3725 68.1588 68.1588 67.975 67.975L55.45 55.45L52 58.3375C50.7 59.4125 49.075 60 47.4 60C45.8625 60 44.3875 59.3875 43.3 58.3C42.7875 57.7875 42.5 57.0875 42.5 56.3625C42.5 55.7 42.75 55.05 43.2 54.55L40 53.75V66.25H42.5L50.3625 74.1125Z" fill="#FFE1D4"/>
<path d="M70 52.5V70H68.7375C68.75 69.95 68.75 69.9 68.75 69.85C68.75 69.15 68.475 68.475 67.975 67.975L55.45 55.45L52 58.3375C50.7 59.4125 49.075 60 47.4 60C45.8625 60 44.3875 59.3875 43.3 58.3C42.7875 57.7875 42.5 57.0875 42.5 56.3625C42.5 55.7 42.75 55.05 43.2 54.55C43.3125 54.4125 43.45 54.2875 43.6 54.175L50.5375 48.975C51.8125 48.0125 53.3625 47.5 54.95 47.5C55.8125 47.5 56.6625 47.65 57.4625 47.9375L70 52.5Z" fill="#EDB8AC"/>
<path d="M40 50H32.5V72.5H40V50Z" fill="#C8C8C8"/>
<path d="M40 50V68.75C37.925 68.75 36.25 67.075 36.25 65V50H40Z" fill="#DCDCDC"/>
<path d="M77.5 50H70V72.5H77.5V50Z" fill="#3C82C2"/>
<path d="M70 50V68.75C72.0712 68.75 73.75 67.0712 73.75 65V50H70Z" fill="#56A0D9"/>
<path d="M12.5 25C11.8113 25 11.25 24.44 11.25 23.75H8.75C8.75 25.3775 9.79875 26.7525 11.25 27.27V28.75H13.75V27.27C15.2013 26.7525 16.25 25.3775 16.25 23.75C16.25 21.6825 14.5675 20 12.5 20C11.8113 20 11.25 19.44 11.25 18.75C11.25 18.06 11.8113 17.5 12.5 17.5C13.1887 17.5 13.75 18.06 13.75 18.75H16.25C16.25 17.1225 15.2013 15.7475 13.75 15.23V13.75H11.25V15.23C9.79875 15.7475 8.75 17.1225 8.75 18.75C8.75 20.8175 10.4325 22.5 12.5 22.5C13.1887 22.5 13.75 23.06 13.75 23.75C13.75 24.44 13.1887 25 12.5 25Z" fill="black"/>
<path d="M33.75 13.75H21.25V16.25H33.75V13.75Z" fill="black"/>
<path d="M38.75 18.75H21.25V21.25H38.75V18.75Z" fill="black"/>
<path d="M51.25 23.75H21.25V26.25H51.25V23.75Z" fill="black"/>
<path d="M22.5 36.25H50C50.69 36.25 51.25 35.6912 51.25 35V30C51.25 29.3088 50.69 28.75 50 28.75H22.5C21.81 28.75 21.25 29.3088 21.25 30V35C21.25 35.6912 21.81 36.25 22.5 36.25ZM23.75 31.25H48.75V33.75H23.75V31.25Z" fill="black"/>
<path d="M26.25 38.75H6.25V41.25H26.25V38.75Z" fill="black"/>
<path d="M22.5 43.75H6.25V46.25H22.5V43.75Z" fill="black"/>
<path d="M20.885 70.3662C20.55 70.0312 20.055 69.9137 19.605 70.065L17.5 70.765V68.75C17.5 68.245 17.195 67.7875 16.7288 67.595C16.26 67.4 15.7238 67.5087 15.3663 67.8662L13.75 69.4825V68.75C13.75 66.6825 12.0675 65 10 65C7.9325 65 6.25 66.6825 6.25 68.75V73.75H8.75V68.75C8.75 68.06 9.31125 67.5 10 67.5C10.6887 67.5 11.25 68.06 11.25 68.75V72.5C11.25 73.005 11.555 73.4625 12.0212 73.655C12.1762 73.72 12.3388 73.75 12.5 73.75C12.825 73.75 13.145 73.6225 13.3837 73.3838L15 71.7675V72.5C15 72.9013 15.1925 73.2788 15.52 73.515C15.8463 73.75 16.2638 73.8138 16.6463 73.6863L19.7238 72.6613C20.67 73.3675 21.8137 73.75 23.0175 73.75H25V71.25H23.0175C22.2112 71.25 21.4538 70.9362 20.885 70.3662Z" fill="black"/>
<path d="M28.75 48.75H6.25V51.25H28.75V48.75Z" fill="black"/>
<path d="M26.25 53.75H6.25V56.25H26.25V53.75Z" fill="black"/>
<path d="M77.5 48.75H70C69.31 48.75 68.75 49.3088 68.75 50V50.7163L61.25 47.9887V2.5C61.25 1.80875 60.69 1.25 60 1.25H7.5C6.81 1.25 6.25 1.80875 6.25 2.5V6.25H2.5C1.81 6.25 1.25 6.80875 1.25 7.5V77.5C1.25 78.1912 1.81 78.75 2.5 78.75H52.4988C53.8025 78.75 54.9537 78.0812 55.6262 77.0687C56.2012 77.3512 56.8388 77.5 57.5 77.5C58.8037 77.5 59.9537 76.8312 60.6262 75.8187C61.2012 76.1012 61.84 76.25 62.5 76.25C64.13 76.25 65.52 75.205 66.0362 73.75H66.0975C67.1075 73.75 68.055 73.3612 68.7838 72.6675C68.8688 73.275 69.3688 73.75 70 73.75H77.5C78.19 73.75 78.75 73.1912 78.75 72.5V50C78.75 49.3088 78.19 48.75 77.5 48.75ZM68.75 66.9812L54.6338 52.8662L52.8662 54.6338L53.6025 55.37L51.195 57.3763C50.1325 58.2625 48.7863 58.75 47.4025 58.75C46.1875 58.75 45.0438 58.2762 44.1838 57.4175C43.9088 57.1412 43.75 56.7575 43.75 56.3675C43.75 55.9025 43.9725 55.4588 44.3437 55.18L51.2875 49.9725C52.9075 48.7563 55.1337 48.4237 57.0425 49.1175L68.75 53.375V66.9812ZM45 10.5175L51.9825 17.5H45V10.5175ZM8.75 3.75H58.75V47.08L57.895 46.7688C57.3613 46.575 56.8075 46.4525 56.25 46.3713V18.75C56.25 18.4175 56.1188 18.1 55.8838 17.8663L44.6338 6.61625C44.4 6.38125 44.0812 6.25 43.75 6.25H8.75V3.75ZM3.75 8.75H42.5V18.75C42.5 19.4412 43.06 20 43.75 20H53.75V46.355C52.3237 46.5575 50.945 47.1025 49.7875 47.9725L42.8512 53.175L41.25 52.775V50C41.25 49.3088 40.69 48.75 40 48.75H32.5C31.81 48.75 31.25 49.3088 31.25 50V58.75H12.5V61.25H31.25V72.5C31.25 73.1912 31.81 73.75 32.5 73.75H40C40.69 73.75 41.25 73.1912 41.25 72.5V70H41.9825L48.2312 76.25H3.75V8.75ZM38.75 51.25V71.25H33.75V51.25H38.75ZM67.0888 70.8388C66.8238 71.1038 66.4725 71.25 66.0975 71.25H65.6687L63.54 68.0562L61.46 69.4425L63.6912 72.79C63.5575 73.3362 63.0863 73.75 62.5 73.75C62.0275 73.75 61.5837 73.5675 61.25 73.2325L60.9713 72.9537L58.54 69.3062L56.46 70.6925L58.6912 74.04C58.5575 74.5862 58.0863 75 57.5 75C57.0275 75 56.5837 74.8175 56.25 74.4825L55.9713 74.2037L53.54 70.5562L51.46 71.9425L53.6912 75.2887C53.5562 75.835 53.085 76.25 52.4988 76.25C52.0263 76.25 51.5825 76.0662 51.2488 75.7325L43.3838 67.8662C43.15 67.6312 42.8312 67.5 42.5 67.5H41.25V56.3675V55.35L41.3825 55.3825C41.3 55.7025 41.25 56.0325 41.25 56.3675C41.25 57.4325 41.665 58.4325 42.4175 59.185C43.75 60.5162 45.52 61.25 47.4025 61.25C49.3688 61.25 51.2838 60.5562 52.795 59.2975L55.3775 57.145L67.0875 68.855C67.3537 69.1212 67.5 69.4737 67.5 69.8475C67.5 70.2225 67.3538 70.575 67.0888 70.8388ZM76.25 71.25H71.25V51.25H76.25V71.25Z" fill="black"/>
</svg>
