<svg xmlns="http://www.w3.org/2000/svg" width="32" height="32">
    <path fill="#fcd062" stroke="#f8b84e" stroke-dashoffset=".35" stroke-linecap="round" stroke-linejoin="round"
        stroke-width=".5"
        d="M13.582 14.083c.278-.482.908-.635 1.413-.344l.143.091 1.894 1.094c.763.44 1.766.12 2.25-.719l-1.622-.94-2.412-1.393-.378-.22a3.335 3.335 0 0 0-4.562 1.234L9.28 14.664" />
    <path fill="#fcd062" stroke="#f8b84e" stroke-dashoffset=".35" stroke-linecap="round" stroke-linejoin="round"
        stroke-width=".5"
        d="m9.585 16.54 2.5-4.33-3.465-2-2.5 4.33zM20.948 16.54l-2.5-4.33 3.464-2 2.5 4.33zM15.138 13.831l1.894 1.094c.763.44 1.766.12 2.25-.72l-1.622-.94-2.412-1.392" />
    <path fill="#fcd062" stroke="#f8b84e" stroke-dashoffset=".35" stroke-linecap="round" stroke-linejoin="round"
        stroke-width=".5" d="M13.582 14.083c.278-.482.908-.635 1.413-.344l1.929 1.114" />
    <path fill="#fcd062" stroke="#f8b84e" stroke-dashoffset=".35" stroke-linecap="round" stroke-linejoin="round"
        stroke-width=".5"
        d="m14.059 12.578 1.603-.926a3.335 3.335 0 0 1 4.563 1.234l1.026 1.778a3.335 3.335 0 0 1-1.212 4.568l-1.604.926.259-.15-4.547 2.626a.873.873 0 0 1-1.195-.32.873.873 0 0 1 .32-1.196l4.547-2.625-.866.5-4.547 2.625a.873.873 0 0 1-1.195-.32.873.873 0 0 1 .32-1.195l4.547-2.625-.433.25-4.547 2.625a.873.873 0 0 1-1.195-.32.873.873 0 0 1 .32-1.196l4.547-2.625.433-.25-4.547 2.625a.873.873 0 0 1-1.195-.32.873.873 0 0 1 .32-1.195l4.547-2.625" />
    <path fill="#406b95" d="m24.935 16.946-4-6.929 2.598-1.5 4 6.929z" />
    <path fill="#e6dfd2"
        d="M25.234 14.463a.5.5 0 0 1 .683.183.5.5 0 0 1-.183.684.5.5 0 0 1-.683-.184.5.5 0 0 1 .183-.683z" />
    <path fill="#406b95" d="m5.598 16.945 4-6.928L7 8.517l-4 6.928z" />
    <path fill="#e6dfd2"
        d="M5.299 14.463a.5.5 0 0 0-.683.183.5.5 0 0 0 .183.683.5.5 0 0 0 .683-.183.5.5 0 0 0-.183-.683z" />
    <path fill="#fcd062" stroke="#f8b84e" stroke-dashoffset=".35" stroke-linecap="round" stroke-linejoin="round"
        stroke-width=".5" d="M15.395 13.831 13.5 14.925c-.762.44-1.766.12-2.25-.72l1.623-.94 2.412-1.392" />
    <path fill="#fcd062" stroke="#f8b84e" stroke-dashoffset=".35" stroke-linecap="round" stroke-linejoin="round"
        stroke-width=".5" d="M16.95 14.083c-.278-.482-.908-.635-1.412-.344l-1.929 1.114" />
    <path fill="#fcd062" stroke="#f8b84e" stroke-dashoffset=".35" stroke-linecap="round" stroke-linejoin="round"
        stroke-width=".5"
        d="m17.673 13.278-1.498-.917-1.305-.709c-1.623-.882-3.634-.373-4.562 1.234L9.28 14.664a3.335 3.335 0 0 0 1.213 4.568l1.603.926-.258-.15 4.546 2.626c.42.242.953.1 1.196-.32a.873.873 0 0 0-.32-1.196l-4.547-2.625.866.5 4.547 2.625c.42.243.953.1 1.195-.32a.873.873 0 0 0-.32-1.195l-4.547-2.625.433.25 4.546 2.625c.42.242.953.1 1.196-.32a.873.873 0 0 0-.32-1.196l-4.547-2.625-.433-.25 4.547 2.625a.874.874 0 0 0 1.195-.32.873.873 0 0 0-.32-1.195l-4.14-2.39" />
    <path fill="#fcd062" stroke="#f8b84e" stroke-dashoffset=".35" stroke-linecap="round" stroke-linejoin="round"
        stroke-width=".5"
        d="M16.95 14.083c-.278-.482-.908-.635-1.412-.344l-.143.091-1.895 1.094c-.762.44-1.766.12-2.25-.719l1.623-.94 2.412-1.393.377-.22a3.335 3.335 0 0 1 4.563 1.234l1.026 1.778m-4.291-.563a.981.981 0 0 1 .072.822" />
</svg>