<svg width="36" height="36" viewBox="0 0 36 36" fill="none" xmlns="http://www.w3.org/2000/svg">
<g clip-path="url(#clip0_274_230)">
<path d="M18.0005 36.0009C27.9416 36.0009 36.0005 27.942 36.0005 18.0009C36.0005 8.05979 27.9416 0.000915527 18.0005 0.000915527C8.05936 0.000915527 0.000488281 8.05979 0.000488281 18.0009C0.000488281 27.942 8.05936 36.0009 18.0005 36.0009Z" fill="#EF4C45"/>
<path d="M21.7815 35.5753C22.1287 35.5085 22.4739 35.4315 22.8165 35.3443C23.3941 35.1829 23.9634 34.9926 24.522 34.7743C25.0814 34.5579 25.6295 34.3135 26.1645 34.0423C26.6996 33.7701 27.2208 33.4712 27.726 33.1468C28.2306 32.8224 28.7188 32.473 29.1885 32.0998C29.6591 31.7262 30.1106 31.3292 30.5415 30.9103C30.9717 30.4925 31.3807 30.0535 31.767 29.5948C32.1537 29.1358 32.5171 28.6577 32.856 28.1623C33.1948 27.6678 33.5087 27.1567 33.7965 26.6308C34.0844 26.1042 34.3457 25.5635 34.5795 25.0108C34.8136 24.458 35.0198 23.8938 35.1975 23.3203C35.3497 22.8173 35.4799 22.3078 35.5875 21.7933L24.897 11.1028C23.9921 10.1962 22.917 9.47745 21.7333 8.98783C20.5497 8.49821 19.2809 8.2474 18 8.24983C16.7192 8.24826 15.4506 8.49937 14.267 8.98879C13.0833 9.47822 12.0079 10.1963 11.1022 11.102C10.1965 12.0077 9.47839 13.0832 8.98897 14.2668C8.49954 15.4504 8.24843 16.719 8.25001 17.9998C8.25001 20.6968 9.34051 23.1328 11.103 24.8968L21.783 35.5753H21.7815Z" fill="#DF2209"/>
<path d="M18 8.25C23.394 8.25 27.75 12.606 27.75 18C27.75 23.394 23.394 27.75 18 27.75C16.7192 27.7516 15.4506 27.5005 14.267 27.011C13.0833 26.5216 12.0079 25.8035 11.1022 24.8978C10.1965 23.9921 9.47839 22.9167 8.98897 21.733C8.49954 20.5494 8.24843 19.2808 8.25001 18C8.25001 12.606 12.606 8.25 18 8.25ZM12.675 17.25C12.4788 17.267 12.2962 17.3577 12.164 17.5038C12.0319 17.6498 11.9599 17.8405 11.9625 18.0375C11.9795 18.2338 12.0702 18.4163 12.2163 18.5485C12.3624 18.6806 12.553 18.7526 12.75 18.75H23.25C23.4484 18.7452 23.6375 18.6649 23.7788 18.5256C23.9201 18.3863 24.0029 18.1983 24.0105 18C24.0029 17.8017 23.9201 17.6137 23.7788 17.4744C23.6375 17.3351 23.4484 17.2548 23.25 17.25H12.75C12.725 17.2487 12.7 17.2487 12.675 17.25Z" fill="white"/>
</g>
<defs>
<clipPath id="clip0_274_230">
<rect width="36" height="36" fill="white"/>
</clipPath>
</defs>
</svg>
