<svg xmlns="http://www.w3.org/2000/svg" viewBox="0 0 64 64"><rect width="42" height="52" x="3" y="3" fill="#ffde55" rx="1" ry="1"/><path fill="#ffeb99" d="M50,21V60a1,1,0,0,1-1,1H9a1,1,0,0,1-1-1V10A1,1,0,0,1,9,9H38V19a2.006,2.006,0,0,0,2,2Z"/><path fill="#ffd422" d="M38,19a2,2,0,0,0,2,2H50L38,9Z"/><path fill="#ff9811" d="M56,13a2,2,0,0,0-2,2v6h4V15A2,2,0,0,0,56,13Z"/><path fill="#ffe477" d="M50,21V60a1,1,0,0,1-1,1H9a1,1,0,0,1-1-1V56.28C21.24,51.85,37.7,42.18,46.36,21Z"/><polygon fill="#57565c" points="56 56 58 51 54 51 56 56"/><rect width="4" height="30" x="54" y="21" fill="#ffb655"/><path fill="#1db794" d="M35,42V33a9,9,0,1,0,9,9Z"/><path fill="#fd7777" d="M35,33v9h9A9,9,0,0,0,35,33Z"/><rect width="4" height="2" x="54" y="20" fill="#ffe477"/><path fill="#ff9478" d="M61,25H59V18H57V16h3a1,1,0,0,1,1,1Z"/><rect width="4" height="2" x="11" y="14" fill="#5aaae7"/><rect width="18" height="2" x="17" y="14" fill="#5aaae7"/><rect width="24" height="2" x="11" y="20" fill="#5aaae7"/><rect width="24" height="2" x="11" y="26" fill="#5aaae7"/><rect width="4" height="2" x="18" y="35" fill="#ff9478"/><rect width="4" height="2" x="18" y="38" fill="#ff9478"/><path fill="#ffb655" d="M29.293,40.707,25.586,37H24V35h2a1,1,0,0,1,.707.293l4,4Z"/><rect width="4" height="2" x="20" y="50" fill="#ff9478"/><rect width="4" height="2" x="20" y="53" fill="#ff9478"/><path fill="#ffb655" d="M28,54H26V52h1.586l6.707-6.707,1.414,1.414-7,7A1,1,0,0,1,28,54Z"/><rect width="4" height="2" x="41" y="29" fill="#ff9478"/><rect width="4" height="2" x="43" y="32" fill="#ff9478"/></svg>