<svg xmlns="http://www.w3.org/2000/svg" data-name="Layer 1" viewBox="0 0 512 512"><path fill="#edb288" d="M459.97,345.03c17.34-.22,25.66,21.19,12.73,32.73l-97.45,87a47.09,47.09,0,0,1-36.08,11.74L192.29,461.82a47.1,47.1,0,0,0-25.12,4.42L90.2,503.26,33,401.68l135.76-73.51a47.084,47.084,0,0,1,24.45-6.91l96.2-.21a21.644,21.644,0,0,1,1.16,43.26l-41.53,2.52a18.239,18.239,0,0,0-14.05,27.86l.01.01a18.23,18.23,0,0,0,13.07,8.41l86.31,11.42a47.13,47.13,0,0,0,33.59-8.37c20.61-14.72,57.69-41.14,81.53-57.77a18.644,18.644,0,0,1,4.98-2.46A18.893,18.893,0,0,1,459.97,345.03Z"/><path fill="#f4b844" d="M267.35,8.74A148.71,148.71,0,1,1,118.64,157.45,148.71,148.71,0,0,1,267.35,8.74Z"/><path fill="#fedb41" d="M267.35,42.62A114.835,114.835,0,1,1,152.52,157.45,114.831,114.831,0,0,1,267.35,42.62Z"/><path fill="#00acea" d="M307.23,123H291.749c-1.308-7-4.248-14-8.4-19H307.23a8,8,0,0,0,0-16H227.48a8,8,0,0,0,0,16H250.3c11.669,0,21.577,8,24.968,19H227.48a8,8,0,0,0,0,16h47.795c-1.254,3-3.43,7.427-6.427,10.428A25.981,25.981,0,0,1,250.3,157H227.48a7.85,7.85,0,0,0-5.494,13.6l57.039,53.865a8.011,8.011,0,0,0,11.309-.347,7.836,7.836,0,0,0-.32-11.173L247.6,173H250.3a41.884,41.884,0,0,0,29.861-12.258A42.507,42.507,0,0,0,291.761,139H307.23a8,8,0,0,0,0-16Z"/></svg>