<svg width="80" height="80" viewBox="0 0 80 80" fill="none" xmlns="http://www.w3.org/2000/svg">
<g clip-path="url(#clip0_270_167)">
<path d="M20.415 32.7901C19.874 32.7959 19.3569 33.0137 18.9746 33.3965C18.5923 33.7792 18.3752 34.2965 18.37 34.8375V38.495C17.0797 38.8696 15.8334 39.3816 14.6525 40.0224L12.07 37.4449C11.6832 37.0665 11.1636 36.8547 10.6225 36.8547C10.0814 36.8547 9.56181 37.0665 9.175 37.4449L4.6575 41.9624C4.27814 42.3494 4.06523 42.8695 4.06429 43.4114C4.06336 43.9533 4.27447 44.4742 4.6525 44.8625L7.24 47.4449C6.59645 48.6214 6.081 49.8636 5.7025 51.1501H2.0525C1.51039 51.1559 0.992087 51.3736 0.608499 51.7567C0.22491 52.1399 0.00650042 52.6578 0 53.1999L0 59.5876C0 60.7026 0.9375 61.6374 2.05 61.6374H5.7025C6.08 62.9299 6.5925 64.1699 7.2375 65.3499L4.6575 67.9274C4.27881 68.3151 4.06679 68.8357 4.06679 69.3776C4.06679 69.9195 4.27881 70.4398 4.6575 70.8275L9.175 75.345C9.56181 75.7234 10.0814 75.9352 10.6225 75.9352C11.1636 75.9352 11.6832 75.7234 12.07 75.345L14.6575 72.7626C15.84 73.4076 17.0775 73.9201 18.37 74.3001V77.9524C18.37 79.0649 19.3025 79.9974 20.415 79.9974H26.8075C27.3481 79.9916 27.8648 79.7742 28.2471 79.3919C28.6293 79.0097 28.8467 78.493 28.8525 77.9524V74.2949C30.1419 73.9201 31.3874 73.4081 32.5675 72.7675L35.1475 75.345C35.5352 75.7237 36.0556 75.9358 36.5975 75.9358C37.1394 75.9358 37.6599 75.7237 38.0475 75.345L42.5625 70.8275C42.9406 70.4395 43.1522 69.9193 43.1522 69.3776C43.1522 68.8359 42.9406 68.3154 42.5625 67.9274L39.98 65.345C40.625 64.165 41.14 62.9274 41.5175 61.6399H45.17C45.7117 61.6334 46.2293 61.4153 46.6124 61.0323C46.9955 60.6492 47.2135 60.1317 47.22 59.59V53.2024C47.2135 52.6607 46.9955 52.1432 46.6124 51.7601C46.2293 51.377 45.7117 51.159 45.17 51.1525H41.5125C41.1385 49.864 40.6272 48.6194 39.9875 47.44L42.5625 44.8625C42.5642 44.8625 42.5658 44.8625 42.5675 44.8625C42.9454 44.4746 43.1564 43.9541 43.1555 43.4126C43.1546 42.8711 42.9417 42.3515 42.5625 41.9649L38.0475 37.4501C37.6599 37.0714 37.1394 36.8593 36.5975 36.8593C36.0556 36.8593 35.5352 37.0714 35.1475 37.4501L32.5625 40.0325C31.3844 39.3887 30.1406 38.8732 28.8525 38.495V34.8424C28.8473 34.3014 28.6303 33.7841 28.2479 33.4013C27.8656 33.0185 27.3485 32.8008 26.8075 32.795H20.415V32.7901ZM20.87 35.2901H26.3525V39.305C26.352 39.5878 26.4474 39.8625 26.6231 40.0841C26.7988 40.3057 27.0445 40.4611 27.32 40.5251C29.0486 40.9293 30.6995 41.6132 32.2075 42.5499C32.4475 42.6998 32.7312 42.764 33.0123 42.7318C33.2934 42.6995 33.5552 42.5729 33.755 42.3726L36.5975 39.5299L40.4775 43.4126L37.6425 46.2502C37.4426 46.449 37.3157 46.7096 37.2826 46.9896C37.2495 47.2696 37.312 47.5525 37.46 47.7925C38.3963 49.3022 39.0794 50.9549 39.4825 52.6851C39.5462 52.9598 39.7009 53.2046 39.9215 53.3803C40.1421 53.5559 40.4155 53.6519 40.6975 53.6525H44.7225V59.1399H40.7C40.4187 59.1402 40.1458 59.2356 39.9253 59.4102C39.7048 59.5849 39.5497 59.8286 39.485 60.1024C39.0783 61.833 38.3918 63.4856 37.4525 64.995C37.3045 65.235 37.242 65.5182 37.2751 65.7982C37.3082 66.0782 37.4351 66.3388 37.635 66.5376L40.475 69.38L36.595 73.26L33.7575 70.425C33.5584 70.2254 33.2976 70.0991 33.0176 70.0664C32.7376 70.0337 32.4547 70.0966 32.215 70.2449C30.7026 71.1806 29.0474 71.8628 27.315 72.2649C27.0408 72.3291 26.7963 72.4841 26.6212 72.7046C26.446 72.9251 26.3505 73.1985 26.35 73.4801V77.5002H20.87V73.485C20.8705 73.2021 20.7751 72.9274 20.5994 72.7058C20.4237 72.4842 20.178 72.3288 19.9025 72.2649C18.1724 71.8605 16.5198 71.1767 15.01 70.24C14.7708 70.0911 14.4883 70.0273 14.2083 70.0591C13.9283 70.0908 13.6672 70.2161 13.4675 70.4149L10.62 73.26L6.7375 69.38L9.58 66.5425C9.77955 66.3434 9.90592 66.0825 9.9386 65.8025C9.97128 65.5224 9.90834 65.2399 9.76 65.0002C8.82461 63.4903 8.14228 61.8376 7.74 60.1076C7.67618 59.8325 7.5211 59.5872 7.30002 59.4115C7.07894 59.2358 6.80489 59.1399 6.5225 59.1399H2.5V53.6525H6.5175C6.79921 53.6527 7.07273 53.5577 7.29372 53.383C7.51471 53.2083 7.67021 52.9641 7.735 52.69C8.14099 50.9596 8.82667 49.3069 9.765 47.7974C9.91334 47.5577 9.97628 47.2748 9.9436 46.9948C9.91092 46.7148 9.78455 46.4542 9.585 46.255L6.7375 43.4126L10.625 39.5299L13.4625 42.3674C13.6616 42.567 13.9224 42.6933 14.2024 42.726C14.4824 42.7587 14.7653 42.6958 15.005 42.5475C16.5165 41.6111 18.1708 40.928 19.9025 40.5251C20.1772 40.4613 20.4222 40.3065 20.5979 40.0859C20.7735 39.8653 20.8694 39.5921 20.87 39.3102V35.2901ZM23.6075 43.9674C20.3138 43.9727 17.1565 45.2835 14.8275 47.6125C12.4985 49.9415 11.1878 53.0987 11.1825 56.3924C11.1825 63.2424 16.7575 68.8225 23.6075 68.8225C26.9025 68.8179 30.0613 67.5072 32.3917 65.1778C34.7221 62.8483 36.0341 59.6901 36.04 56.3951C36.0334 53.1005 34.7212 49.9429 32.3909 47.614C30.0605 45.2851 26.9021 43.9721 23.6075 43.9674ZM23.6075 46.4674C29.1075 46.4674 33.54 50.8974 33.54 56.3924C33.54 61.8924 29.1075 66.3225 23.6075 66.3225C18.1075 66.3225 13.6825 61.8926 13.6825 56.3951C13.6802 55.0911 13.9353 53.7993 14.4333 52.5941C14.9313 51.3889 15.6622 50.2939 16.5843 49.3718C17.5064 48.4497 18.6014 47.7189 19.8066 47.2209C21.0118 46.723 22.3035 46.4651 23.6075 46.4674ZM59.125 27.5575L55.025 28.6601C55.0167 28.66 55.0083 28.66 55 28.6601C54.9983 28.6601 54.9967 28.6601 54.995 28.6601C54.3775 28.8276 54.3325 29.5201 54.165 30.1051L54.0875 30.0551C54.0942 30.1006 54.1034 30.1455 54.115 30.19C54.055 30.46 53.665 30.5649 53.74 30.8449L54.3025 32.9399C53.7025 33.3249 53.14 33.7551 52.6125 34.2326L50.7475 33.1575C50.3359 32.922 49.8482 32.8578 49.3898 32.979C48.9313 33.1001 48.539 33.397 48.2975 33.8051L46.1625 37.495C45.9289 37.906 45.8661 38.3925 45.9877 38.8493C46.1093 39.3062 46.4055 39.6971 46.8125 39.9376C46.8142 39.9376 46.8158 39.9376 46.8175 39.9376L48.695 41.0201C48.545 41.7176 48.4525 42.42 48.42 43.13L46.32 43.6925C45.3875 43.9425 44.8075 44.9426 45.0575 45.8751L46.1625 50.0002C46.4125 50.9352 47.4175 51.5099 48.35 51.2599L50.445 50.6975C50.83 51.2975 51.26 51.86 51.7375 52.3875L50.655 54.2574C50.4216 54.6687 50.3592 55.1554 50.4812 55.6123C50.6033 56.0693 50.9001 56.4599 51.3075 56.7L55.005 58.8374C55.8425 59.3224 56.955 59.0224 57.4425 58.1874L58.525 56.31C59.2225 56.46 59.925 56.5524 60.635 56.5849L61.195 58.6824C61.445 59.6149 62.445 60.1949 63.38 59.9474C63.3817 59.9474 63.3833 59.9474 63.385 59.9474L67.505 58.8374C67.5067 58.8374 67.5083 58.8374 67.51 58.8374C67.9628 58.7093 68.3478 58.4097 68.5831 58.0022C68.8184 57.5946 68.8854 57.1113 68.77 56.6551L68.2025 54.5601C68.8021 54.1767 69.3691 53.7441 69.8975 53.2674L71.7575 54.3425C72.6 54.8425 73.73 54.5274 74.2075 53.6974L76.3425 50.005C76.5768 49.5942 76.6399 49.1074 76.5183 48.6504C76.3967 48.1933 76.1 47.8025 75.6925 47.5624L73.8125 46.4799C73.9625 45.7849 74.0575 45.08 74.0925 44.37L76.1875 43.81C76.1892 43.81 76.1908 43.81 76.1925 43.81C76.6451 43.6802 77.0294 43.3791 77.2637 42.9707C77.498 42.5623 77.5639 42.0787 77.4475 41.6225L76.3425 37.5002C76.2143 37.0473 75.9146 36.6621 75.5071 36.4268C75.0995 36.1916 74.6162 36.1247 74.16 36.2401L72.06 36.8025C71.6779 36.2049 71.2473 35.6396 70.7725 35.1125L71.855 33.2326C72.0849 32.8213 72.1454 32.3364 72.0235 31.8813C71.9017 31.4261 71.6071 31.0366 71.2025 30.7951L67.52 28.6775C67.1069 28.4404 66.617 28.3755 66.1565 28.4972C65.696 28.6188 65.302 28.9173 65.06 29.3275L63.98 31.1974C63.2854 31.047 62.5798 30.9535 61.87 30.9175L61.31 28.8225C61.1824 28.3687 60.8825 27.9826 60.4743 27.7467C60.0661 27.5109 59.5819 27.4415 59.125 27.5575ZM59.075 30.1576L59.6675 32.3524C59.7406 32.6243 59.9032 32.8636 60.1292 33.0315C60.3551 33.1993 60.6311 33.286 60.9125 33.2774C62.0544 33.242 63.1943 33.3934 64.2875 33.7251C64.5576 33.8068 64.8474 33.7946 65.1098 33.6906C65.3722 33.5867 65.5916 33.3971 65.7325 33.1526L66.87 31.1852L69.33 32.6051L68.1975 34.5699C68.0573 34.8134 68.0032 35.0972 68.044 35.3752C68.0849 35.6533 68.2182 35.9095 68.4225 36.1024C69.255 36.8849 69.955 37.8 70.4925 38.8075C70.6252 39.0565 70.8382 39.2534 71.097 39.366C71.3557 39.4786 71.6449 39.5003 71.9175 39.4276L74.1175 38.8374L74.8475 41.5749L72.655 42.1675C72.3832 42.2406 72.1439 42.4033 71.9761 42.6292C71.8082 42.8552 71.7215 43.1313 71.73 43.4126C71.765 44.5526 71.615 45.6926 71.285 46.7876C71.2037 47.0571 71.2158 47.3461 71.3192 47.6079C71.4227 47.8697 71.6115 48.089 71.855 48.2301L73.8225 49.3675L72.4025 51.8251L70.44 50.6926C70.1962 50.5517 69.912 50.4973 69.6334 50.5382C69.3548 50.579 69.0981 50.7126 68.905 50.9175C68.1221 51.7502 67.2084 52.4495 66.2 52.9875C65.951 53.1202 65.7542 53.3333 65.6416 53.5921C65.5291 53.8508 65.5074 54.1397 65.58 54.4124L66.1675 56.6124L63.4275 57.3424L62.8425 55.15C62.7697 54.8768 62.6065 54.6364 62.3795 54.4679C62.1525 54.2995 61.875 54.213 61.5925 54.2226C60.4508 54.2588 59.3108 54.1085 58.2175 53.7776C57.9474 53.6959 57.6576 53.7079 57.3952 53.8118C57.1328 53.9157 56.9134 54.1056 56.7725 54.3501L55.635 56.3176L53.175 54.8976L54.3125 52.9326C54.4521 52.6885 54.5054 52.4044 54.4636 52.1263C54.4219 51.8482 54.2876 51.5923 54.0825 51.4C53.2514 50.6169 52.5539 49.7031 52.0175 48.6949C51.8848 48.4459 51.6718 48.2493 51.4131 48.1367C51.1543 48.0242 50.8651 48.0025 50.5925 48.0751L48.3925 48.665L47.66 45.9276L49.8525 45.3349C50.1243 45.2619 50.3636 45.0992 50.5315 44.8732C50.6993 44.6472 50.786 44.3715 50.7775 44.0901C50.7427 42.9481 50.8947 41.8079 51.2275 40.7149C51.309 40.4445 51.2965 40.1545 51.1921 39.8921C51.0877 39.6297 50.8975 39.4104 50.6525 39.2699L48.6825 38.1325L50.1075 35.6776L52.065 36.8102C52.3091 36.9517 52.5938 37.0063 52.873 36.9655C53.1521 36.9246 53.4092 36.7904 53.6025 36.5849C54.3855 35.7523 55.2992 35.0531 56.3075 34.5149C56.5565 34.3822 56.7533 34.1694 56.8659 33.9107C56.9784 33.652 57.0002 33.3627 56.9275 33.0901L56.3375 30.89L59.0775 30.1601L59.075 30.1576ZM62.4475 35.1149C61.2942 34.9524 60.1201 35.0237 58.995 35.3249C56.763 35.9283 54.8609 37.3916 53.705 39.3941C52.5492 41.3966 52.2336 43.7754 52.8275 46.01C53.4315 48.241 54.8944 50.1421 56.8963 51.2975C58.8982 52.4528 61.2761 52.7684 63.51 52.1751C65.7415 51.5717 67.6431 50.1088 68.7989 48.1068C69.9547 46.1049 70.2706 43.7267 69.6775 41.4925C69.2299 39.8382 68.3059 38.3519 67.0205 37.2185C65.735 36.085 64.1448 35.3546 62.4475 35.1176V35.1149ZM59.6425 37.7425C60.4321 37.528 61.2563 37.4717 62.0678 37.5771C62.8792 37.6824 63.6617 37.9472 64.3704 38.3562C65.0791 38.7651 65.6999 39.31 66.1971 39.9599C66.6943 40.6097 67.0581 41.3515 67.2675 42.1425C67.4811 42.9319 67.5365 43.7559 67.4305 44.5668C67.3245 45.3777 67.0591 46.1595 66.6497 46.8675C66.2403 47.5755 65.6949 48.1958 65.045 48.6922C64.395 49.1886 63.6533 49.5514 62.8625 49.76C62.0734 49.974 61.2497 50.03 60.4389 49.9245C59.6282 49.8189 58.8462 49.554 58.1382 49.1451C57.4302 48.7361 56.8101 48.1909 56.3136 47.5414C55.817 46.8918 55.4539 46.1505 55.245 45.36C55.0309 44.5708 54.9751 43.7473 55.0806 42.9366C55.1862 42.1258 55.4511 41.3438 55.86 40.6358C56.269 39.9278 56.8139 39.3077 57.4635 38.8112C58.1131 38.3146 58.852 37.9513 59.6425 37.7425ZM36.1775 -0.00244141C35.1775 -0.00244141 34.34 0.837522 34.34 1.83502V4.29993C33.5425 4.54993 32.7725 4.86744 32.03 5.24994L30.2925 3.50998C29.9442 3.17288 29.4785 2.98447 28.9938 2.98447C28.509 2.98447 28.0433 3.17288 27.695 3.50998L24.38 6.82007C23.68 7.52007 23.68 8.71507 24.385 9.41757L26.1225 11.1601C25.7359 11.8969 25.4154 12.6664 25.165 13.4599H22.705C22.2205 13.467 21.7579 13.6627 21.4153 14.0053C21.0727 14.3479 20.8771 14.8105 20.87 15.295V19.9825C20.87 20.9775 21.71 21.8199 22.705 21.8199H25.17C25.42 22.6149 25.7325 23.3849 26.12 24.1249L24.38 25.8626C23.6775 26.5626 23.68 27.7574 24.385 28.4599L27.695 31.7751C28.3975 32.4776 29.59 32.4751 30.295 31.7751L32.03 30.0374C32.7725 30.4249 33.5425 30.7425 34.34 30.995V33.455C34.34 34.4475 35.1825 35.2901 36.1775 35.2901H40.86C41.86 35.2901 42.695 34.4525 42.695 33.455V30.9901C43.495 30.7401 44.2625 30.4224 45.005 30.0374L46.7425 31.7751C47.09 32.1147 47.5566 32.3048 48.0425 32.3048C48.5284 32.3048 48.995 32.1147 49.3425 31.7751L52.6525 28.4651C52.6542 28.4651 52.6558 28.4651 52.6575 28.4651C52.9953 28.1163 53.1837 27.6494 53.1828 27.1638C53.1818 26.6783 52.9916 26.2125 52.6525 25.865L50.9125 24.1301C51.2994 23.3917 51.6199 22.6203 51.87 21.8251H54.33C55.33 21.8251 56.1675 20.9851 56.1675 19.9876V15.3001C56.161 14.8151 55.9653 14.3514 55.622 14.0086C55.2787 13.6658 54.8151 13.4709 54.33 13.4651H51.865C51.6173 12.6702 51.2993 11.8988 50.915 11.1601L52.6525 9.42245C52.6542 9.42246 52.6558 9.42246 52.6575 9.42245C52.9953 9.07368 53.1837 8.607 53.1828 8.12149C53.1818 7.63598 52.9916 7.16998 52.6525 6.82251L49.34 3.51501C48.9926 3.17616 48.5265 2.98645 48.0413 2.98645C47.556 2.98645 47.0899 3.17616 46.7425 3.51501L45 5.25253C44.2615 4.86574 43.4902 4.54532 42.695 4.29504V1.83502C42.6885 1.35013 42.4932 0.886808 42.1506 0.543671C41.8079 0.200534 41.3449 0.00467577 40.86 -0.00244141H36.1775ZM36.84 2.49756H40.195V5.11505C40.195 5.39744 40.2907 5.67141 40.4664 5.89249C40.6421 6.11357 40.8874 6.26873 41.1625 6.33255C42.395 6.62005 43.5725 7.10756 44.6475 7.77756C44.8869 7.92716 45.17 7.99122 45.4505 7.95944C45.7311 7.92767 45.9926 7.80191 46.1925 7.60254L48.0425 5.75256L50.415 8.125L48.57 9.96994C48.3712 10.1697 48.2458 10.4309 48.214 10.7109C48.1823 10.9909 48.246 11.2734 48.395 11.5126C49.06 12.5901 49.5425 13.7652 49.83 15.0002C49.8944 15.2752 50.0501 15.5201 50.2716 15.6953C50.4932 15.8706 50.7675 15.9658 51.05 15.9651H53.6675V19.3251H51.05C50.7687 19.3254 50.4958 19.4205 50.2753 19.5952C50.0548 19.7698 49.8997 20.0139 49.835 20.2876C49.545 21.5201 49.0575 22.6974 48.3875 23.7749C48.2385 24.0141 48.1748 24.2966 48.2065 24.5766C48.2383 24.8566 48.3637 25.1178 48.5625 25.3175L50.415 27.1675L48.04 29.5424L46.1975 27.6924C45.9976 27.493 45.7361 27.3674 45.4555 27.3357C45.175 27.3039 44.8919 27.3679 44.6525 27.5175C43.5755 28.1852 42.3966 28.6725 41.1625 28.9601C40.8878 29.0238 40.6428 29.1784 40.4672 29.399C40.2915 29.6195 40.1956 29.8931 40.195 30.175V32.7925H36.84V30.175C36.8395 29.8934 36.744 29.6201 36.5688 29.3996C36.3937 29.179 36.1492 29.0243 35.875 28.9601C34.6416 28.6715 33.4636 28.1834 32.3875 27.5151C32.1483 27.3661 31.8658 27.3024 31.5858 27.3341C31.3058 27.3659 31.0448 27.4912 30.845 27.69L28.995 29.5399L26.615 27.1675L28.4625 25.3224C28.6621 25.1233 28.7884 24.8627 28.8211 24.5827C28.8538 24.3027 28.7908 24.0198 28.6425 23.7801C27.975 22.7026 27.4875 21.5275 27.2025 20.2925C27.1388 20.0178 26.9841 19.7727 26.7635 19.597C26.5429 19.4214 26.2695 19.3257 25.9875 19.3251H23.37V15.9676H25.9825C26.2646 15.9684 26.5387 15.8738 26.7602 15.699C26.9817 15.5243 27.1376 15.2796 27.2025 15.005C27.49 13.7725 27.9775 12.595 28.6475 11.5175C28.7958 11.2777 28.8588 10.9949 28.8261 10.7149C28.7934 10.4349 28.6671 10.1743 28.4675 9.97513L26.6175 8.125L28.9925 5.74997L30.84 7.5975C31.0398 7.79627 31.3008 7.92173 31.5808 7.95349C31.8608 7.98526 32.1433 7.92149 32.3825 7.77252C33.4605 7.10551 34.6402 6.61913 35.875 6.33255C36.1496 6.26824 36.3944 6.11291 36.5696 5.89188C36.7448 5.67084 36.8401 5.3971 36.84 5.11505V2.49756ZM38.515 8.19748C36.011 8.20276 33.6111 9.1997 31.8404 10.9703C30.0698 12.7409 29.0728 15.1411 29.0675 17.6451C29.0721 20.15 30.0692 22.5508 31.8405 24.3221C33.6117 26.0933 36.0126 27.0903 38.5175 27.0949C41.0219 27.0896 43.4223 26.0923 45.1929 24.3211C46.9636 22.55 47.9604 20.1496 47.965 17.6451C47.9604 15.1402 46.9633 12.7391 45.1921 10.9679C43.4208 9.19665 41.0199 8.20211 38.515 8.19748ZM38.515 10.6975C39.4282 10.6948 40.333 10.8727 41.1772 11.2209C42.0214 11.569 42.7885 12.0807 43.4344 12.7263C44.0803 13.3719 44.5921 14.1389 44.9406 14.9831C45.2891 15.8272 45.4673 16.7319 45.465 17.6451C45.465 21.4951 42.3675 24.5949 38.515 24.5949C37.6018 24.5972 36.6971 24.4191 35.853 24.0706C35.0089 23.7221 34.242 23.2101 33.5963 22.5642C32.9507 21.9184 32.4391 21.1514 32.0909 20.3072C31.7427 19.4629 31.5649 18.5583 31.5675 17.6451C31.5675 13.7951 34.6625 10.695 38.5175 10.695L38.515 10.6975Z" fill="#25B39E"/>
</g>
<defs>
<clipPath id="clip0_270_167">
<rect width="80" height="80" fill="white"/>
</clipPath>
</defs>
</svg>
