<svg width="80" height="80" viewBox="0 0 80 80" fill="none" xmlns="http://www.w3.org/2000/svg">
<g clip-path="url(#clip0_271_169)">
<path d="M40 80.0002C62.0914 80.0002 80 62.0915 80 40.0002C80 17.9088 62.0914 0 40 0C17.9086 0 0 17.9088 0 40.0002C0 62.0915 17.9086 80.0002 40 80.0002Z" fill="#424242"/>
<path d="M46.895 79.3951C48.1756 79.1721 49.4446 78.8867 50.6975 78.5401C51.9827 78.1837 53.2493 77.7631 54.4925 77.2801C55.7356 76.798 56.9538 76.2539 58.1425 75.6501C59.3317 75.0443 60.4898 74.3793 61.6125 73.6576C62.7339 72.9373 63.8186 72.1613 64.8625 71.3326C65.9066 70.5048 66.9087 69.6254 67.865 68.6976C68.8233 67.7672 69.7345 66.7893 70.595 65.7676C71.4533 64.7485 72.2601 63.6872 73.0125 62.5876C73.7657 61.4857 74.4632 60.3468 75.1025 59.1751C75.654 58.1477 76.1603 57.0967 76.62 56.0251L45.3 24.7001C44.605 24.0024 43.7791 23.4488 42.8695 23.0713C41.96 22.6937 40.9848 22.4996 40 22.5001C35.87 22.5001 32.5 25.8701 32.5 30.0001C32.5 32.0651 33.3425 33.9401 34.7 35.3001L39.4275 40.0251C30.1175 40.2826 22.5 46.7601 22.5 55.0001L46.895 79.3951Z" fill="#1F212A"/>
<path d="M40 22.5001C35.87 22.5001 32.5 25.8701 32.5 30.0001C32.5 34.1301 35.87 37.5001 40 37.5001C44.13 37.5001 47.5 34.1301 47.5 30.0001C47.5 25.8701 44.13 22.5001 40 22.5001ZM40 24.6426C42.9725 24.6426 45.3575 27.0276 45.3575 30.0001C45.3598 30.7046 45.2228 31.4025 44.9545 32.0538C44.6861 32.7052 44.2917 33.297 43.7938 33.7954C43.2959 34.2937 42.7044 34.6887 42.0533 34.9577C41.4023 35.2267 40.7044 35.3643 40 35.3626C39.2956 35.3643 38.5977 35.2267 37.9467 34.9577C37.2956 34.6887 36.7041 34.2937 36.2062 33.7954C35.7083 33.297 35.3139 32.7052 35.0455 32.0538C34.7772 31.4025 34.6402 30.7046 34.6425 30.0001C34.6425 27.0301 37.0275 24.6426 40 24.6426ZM40 40.0001C30.43 40.0001 22.5 46.5901 22.5 55.0001H25C25 48.1751 31.565 42.5001 40 42.5001C48.435 42.5001 55 48.1751 55 55.0001H57.5C57.5 46.5901 49.57 40.0001 40 40.0001Z" fill="white"/>
</g>
<defs>
<clipPath id="clip0_271_169">
<rect width="80" height="80" fill="white"/>
</clipPath>
</defs>
</svg>
